<svg width="145" height="133" viewBox="0 0 145 133" fill="none" xmlns="http://www.w3.org/2000/svg">
<path d="M124.685 66.5001C124.685 95.1409 101.677 118.351 73.3053 118.351C44.9334 118.351 21.9258 95.1409 21.9258 66.5001C21.9258 37.8592 44.9334 14.6489 73.3053 14.6489C101.677 14.6489 124.685 37.8592 124.685 66.5001Z" fill="#200F2E" stroke="#3F1960"/>
<ellipse cx="73.3052" cy="66.5001" rx="23.5816" ry="24.0532" fill="url(#paint0_linear_303_628)"/>
<path d="M95.8868 66.5001C95.8868 79.2508 85.7581 89.5533 73.3052 89.5533C60.8523 89.5533 50.7236 79.2508 50.7236 66.5001C50.7236 53.7494 60.8523 43.4469 73.3052 43.4469C85.7581 43.4469 95.8868 53.7494 95.8868 66.5001Z" stroke="white" stroke-opacity="0.17" stroke-width="2"/>
<circle cx="72.8331" cy="66.5001" r="65.5001" stroke="white" stroke-opacity="0.1" stroke-width="2" stroke-dasharray="3 3"/>
<ellipse cx="32.7448" cy="38.2021" rx="32.071" ry="32.5426" fill="url(#paint1_linear_303_628)"/>
<path d="M63.8158 38.2021C63.8158 55.6364 49.8911 69.7447 32.7448 69.7447C15.5985 69.7447 1.67383 55.6364 1.67383 38.2021C1.67383 20.7678 15.5985 6.65955 32.7448 6.65955C49.8911 6.65955 63.8158 20.7678 63.8158 38.2021Z" stroke="white" stroke-opacity="0.17" stroke-width="2"/>
<ellipse cx="111.979" cy="95.7412" rx="32.071" ry="32.5426" fill="url(#paint2_linear_303_628)"/>
<path d="M143.05 95.7412C143.05 113.176 129.125 127.284 111.979 127.284C94.8329 127.284 80.9082 113.176 80.9082 95.7412C80.9082 78.3069 94.8329 64.1986 111.979 64.1986C129.125 64.1986 143.05 78.3069 143.05 95.7412Z" stroke="white" stroke-opacity="0.17" stroke-width="2"/>
<g opacity="0.3" clip-path="url(#clip0_303_628)">
<path opacity="0.3" fill-rule="evenodd" clip-rule="evenodd" d="M63.4303 101.17C42.457 96.2884 38.969 79.4893 38.969 79.4893C38.8728 79.0317 39.1656 78.5817 39.6236 78.485C40.0811 78.3884 40.5312 78.6817 40.6279 79.1397C40.6279 79.1397 44.117 95.4002 64.765 99.729C64.0887 98.6133 63.2915 97.6141 62.5556 96.5383C62.2917 96.152 62.3904 95.6243 62.7766 95.3599C63.1629 95.096 63.6907 95.1952 63.955 95.5809C64.7743 96.7795 65.6642 97.8887 66.3946 99.1537C66.4681 99.2811 67.0695 100.341 67.1257 100.608C67.2237 101.074 66.9931 101.347 66.8439 101.475C66.3326 101.913 65.6487 102.238 64.9081 102.492C63.9641 102.816 62.9239 103.023 62.158 103.299C61.7179 103.458 61.232 103.229 61.0732 102.789C60.915 102.349 61.1435 101.863 61.5837 101.705C62.1106 101.515 62.7646 101.355 63.4303 101.17Z" fill="white"/>
</g>
<g opacity="0.3" clip-path="url(#clip1_303_628)">
<path opacity="0.3" fill-rule="evenodd" clip-rule="evenodd" d="M81.7281 28.3125C102.88 32.3491 107.039 48.9948 107.039 48.9948C107.154 49.4482 106.879 49.9095 106.425 50.0245C105.972 50.1394 105.511 49.8644 105.396 49.4106C105.396 49.4106 101.257 33.3031 80.4523 29.8056C81.1728 30.8934 82.0094 31.8597 82.7879 32.9052C83.067 33.2806 82.9895 33.8118 82.6142 34.0915C82.2389 34.3707 81.7075 34.2927 81.428 33.9179C80.5613 32.7531 79.6276 31.6805 78.8471 30.4458C78.7685 30.3215 78.1251 29.2868 78.0583 29.0221C77.9417 28.5605 78.1611 28.2783 78.305 28.1447C78.7984 27.6865 79.4687 27.3339 80.1985 27.0507C81.1288 26.6894 82.1598 26.4403 82.914 26.1337C83.3474 25.9579 83.8421 26.1664 84.0184 26.5997C84.1942 27.0331 83.9853 27.5283 83.5519 27.7041C83.033 27.915 82.3859 28.1009 81.7281 28.3125Z" fill="white"/>
</g>
<path d="M43.1723 38.9686C42.4445 38.0335 41.3461 37.3912 39.8774 37.0421C41.7477 36.0942 42.5697 34.4854 42.344 32.2154C42.2686 31.3922 42.0396 30.6788 41.6566 30.0741C41.2733 29.4693 40.7561 28.9831 40.103 28.6152C39.4504 28.2469 38.7406 27.9666 37.9753 27.7733C37.2098 27.58 36.3309 27.4396 35.3393 27.3524V22.6383H32.44V27.2215C31.938 27.2215 31.1724 27.2339 30.1432 27.2589V22.6383H27.2435V27.3524C26.8292 27.365 26.2205 27.3713 25.4172 27.3713L21.4258 27.3524V30.4204H23.5155C24.4695 30.4204 25.0281 30.8445 25.1912 31.6924V37.0614C25.3169 37.0614 25.4172 37.0678 25.4926 37.0803H25.1912V44.6001C25.0909 45.236 24.727 45.5542 24.0993 45.5542H22.0097L21.4259 48.9776H25.1916C25.4301 48.9776 25.7751 48.9808 26.2271 48.9864C26.6789 48.9927 27.0177 48.9959 27.2437 48.9959V53.766H30.1438V49.0519C30.6708 49.0647 31.4365 49.0708 32.4406 49.0708V53.766H35.34V48.9959C36.3694 48.9461 37.2825 48.853 38.0792 48.7154C38.8763 48.5777 39.639 48.3629 40.3669 48.0696C41.0947 47.7768 41.7034 47.4117 42.1928 46.9752C42.6825 46.5391 43.087 45.9839 43.4076 45.3103C43.7272 44.6368 43.9314 43.8573 44.019 42.9717C44.1829 41.2386 43.9003 39.9041 43.1723 38.9686ZM30.1996 30.6256C30.2875 30.6256 30.5354 30.6225 30.9433 30.6162C31.3515 30.6098 31.6902 30.6036 31.9601 30.5973C32.23 30.5912 32.594 30.6068 33.0523 30.6442C33.5105 30.6816 33.8964 30.7316 34.2101 30.7938C34.5238 30.8561 34.8693 30.959 35.2455 31.1024C35.6224 31.2457 35.9234 31.4204 36.1491 31.6261C36.3752 31.8319 36.5666 32.0939 36.7232 32.4119C36.8803 32.7299 36.9588 33.0947 36.9588 33.5061C36.9588 33.8554 36.9024 34.1735 36.7896 34.4605C36.6769 34.7472 36.5071 34.9874 36.2814 35.1807C36.0557 35.374 35.823 35.5425 35.5845 35.6858C35.3462 35.8291 35.0415 35.9446 34.6714 36.0318C34.3013 36.1191 33.9781 36.1877 33.7021 36.2375C33.4259 36.2875 33.0808 36.3219 32.6666 36.3405C32.2522 36.3591 31.9383 36.3718 31.725 36.3779C31.5116 36.3841 31.2198 36.3841 30.8494 36.3779C30.4789 36.3718 30.2627 36.3685 30.1998 36.3685V30.6256L30.1996 30.6256ZM38.1171 43.3647C37.9975 43.6517 37.844 43.9013 37.6558 44.1135C37.4674 44.3251 37.2193 44.5124 36.912 44.6743C36.6047 44.8366 36.3063 44.9673 36.0178 45.0671C35.729 45.1673 35.3805 45.2541 34.973 45.3292C34.5645 45.4041 34.207 45.4568 33.8992 45.4882C33.5918 45.5194 33.2248 45.5443 32.7979 45.5631C32.3713 45.5815 32.0384 45.591 31.8 45.591C31.5615 45.591 31.2602 45.5876 30.8962 45.5815C30.532 45.5756 30.3 45.5725 30.1995 45.5725V39.2494C30.2998 39.2494 30.5979 39.2433 31.0938 39.2305C31.5898 39.218 31.9944 39.2121 32.3082 39.2121C32.622 39.2121 33.0552 39.2305 33.6077 39.2682C34.1596 39.3054 34.6241 39.3613 35.001 39.4361C35.3774 39.511 35.7882 39.6262 36.2341 39.7823C36.6796 39.9381 37.0406 40.1283 37.3169 40.3527C37.5931 40.5776 37.8251 40.864 38.0133 41.2133C38.202 41.5624 38.2961 41.9615 38.2961 42.4106C38.2961 42.7602 38.2365 43.0777 38.1171 43.3647Z" fill="url(#paint3_linear_303_628)"/>
<path d="M116.808 94.6583C115.445 93.9212 113.997 93.3597 112.562 92.777C111.73 92.4401 110.934 92.047 110.231 91.4994C108.847 90.4184 109.112 88.6634 110.733 87.9685C111.192 87.7719 111.673 87.7088 112.16 87.6807C114.04 87.5824 115.825 87.9193 117.525 88.7196C118.372 89.1197 118.651 88.9934 118.938 88.1299C119.24 87.2174 119.491 86.2908 119.77 85.3712C119.957 84.7534 119.727 84.3463 119.132 84.0866C118.042 83.6162 116.923 83.2793 115.747 83.0968C114.212 82.8651 114.212 82.8581 114.205 81.3489C114.197 79.2219 114.197 79.2219 112.017 79.2219C111.701 79.2219 111.386 79.2149 111.07 79.2219C110.052 79.2499 109.88 79.4254 109.851 80.4293C109.837 80.8785 109.851 81.3278 109.844 81.7841C109.837 83.1178 109.829 83.0968 108.524 83.5601C105.368 84.6832 103.417 86.7892 103.209 90.1586C103.023 93.142 104.615 95.1567 107.118 96.6238C108.66 97.5294 110.367 98.0629 112.003 98.7719C112.641 99.0457 113.251 99.3615 113.781 99.7968C115.352 101.067 115.065 103.18 113.2 103.981C112.203 104.409 111.149 104.514 110.066 104.381C108.395 104.177 106.796 103.749 105.289 102.984C104.407 102.534 104.149 102.654 103.848 103.587C103.59 104.395 103.36 105.209 103.13 106.023C102.822 107.118 102.937 107.378 104.006 107.891C105.368 108.536 106.824 108.866 108.309 109.098C109.471 109.28 109.507 109.33 109.521 110.509C109.528 111.042 109.528 111.583 109.535 112.116C109.543 112.79 109.872 113.183 110.583 113.197C111.386 113.212 112.196 113.212 113 113.19C113.659 113.176 113.997 112.825 113.997 112.173C113.997 111.443 114.032 110.705 114.004 109.975C113.968 109.231 114.298 108.852 115.029 108.656C116.715 108.206 118.149 107.322 119.254 106.002C122.324 102.352 121.155 97.0099 116.808 94.6583Z" fill="url(#paint4_linear_303_628)"/>
<defs>
<linearGradient id="paint0_linear_303_628" x1="51.9118" y1="118.465" x2="91.1098" y2="49.5996" gradientUnits="userSpaceOnUse">
<stop stop-color="#310B16"/>
<stop offset="0.552813" stop-color="#381C42"/>
<stop offset="1" stop-color="#240C2D"/>
</linearGradient>
<linearGradient id="paint1_linear_303_628" x1="20.9854" y1="62.0667" x2="55.8507" y2="14.8218" gradientUnits="userSpaceOnUse">
<stop stop-color="#663A37"/>
<stop offset="0.450234" stop-color="#573B34"/>
<stop offset="1" stop-color="#614634"/>
</linearGradient>
<linearGradient id="paint2_linear_303_628" x1="91.699" y1="118.38" x2="132.448" y2="70.839" gradientUnits="userSpaceOnUse">
<stop stop-color="#284D66"/>
<stop offset="0.450234" stop-color="#203266"/>
<stop offset="1" stop-color="#2A3770"/>
</linearGradient>
<linearGradient id="paint3_linear_303_628" x1="32.7449" y1="22.6383" x2="32.7449" y2="53.766" gradientUnits="userSpaceOnUse">
<stop stop-color="white"/>
<stop offset="1" stop-color="#A5A2AF"/>
</linearGradient>
<linearGradient id="paint4_linear_303_628" x1="111.978" y1="79.2188" x2="111.978" y2="113.207" gradientUnits="userSpaceOnUse">
<stop stop-color="white"/>
<stop offset="1" stop-color="#A5A2AF"/>
</linearGradient>
<clipPath id="clip0_303_628">
<rect width="32.071" height="32.071" fill="white" transform="matrix(0.987585 -0.157088 -0.157088 -0.987585 39.7471 108.909)"/>
</clipPath>
<clipPath id="clip1_303_628">
<rect width="32.071" height="32.071" fill="white" transform="matrix(-0.980492 0.196559 0.196559 0.980492 105.082 19.6301)"/>
</clipPath>
</defs>
</svg>
