<svg width="635" height="637" viewBox="0 0 635 637" fill="none" xmlns="http://www.w3.org/2000/svg">
<g opacity="0.8">
<path d="M289.384 437.117L259.491 572.519L232.809 588.59" stroke="#5B1E65" stroke-opacity="0.6" stroke-miterlimit="10"/>
<path d="M280.155 438.925L242.237 564.684" stroke="#5B1E65" stroke-opacity="0.6" stroke-miterlimit="10"/>
<path d="M272.933 438.925L224.583 572.719L199.706 582.362L190.076 605.063" stroke="#5B1E65" stroke-opacity="0.6" stroke-miterlimit="10"/>
<path d="M269.322 430.086L216.96 542.184L187.669 554.237" stroke="#5B1E65" stroke-opacity="0.6" stroke-miterlimit="10"/>
<path d="M254.075 422.854L192.484 522.095" stroke="#5B1E65" stroke-opacity="0.6" stroke-miterlimit="10"/>
<path d="M243.843 422.854L157.776 546.202L168.61 588.59" stroke="#5B1E65" stroke-opacity="0.6" stroke-miterlimit="10"/>
<path d="M239.429 419.238L179.243 495.376L154.165 499.796" stroke="#5B1E65" stroke-opacity="0.6" stroke-miterlimit="10"/>
<path d="M231.404 413.211L166.604 479.706" stroke="#5B1E65" stroke-opacity="0.6" stroke-miterlimit="10"/>
<path d="M228.395 405.979L142.93 492.162V526.112L118.053 554.237" stroke="#5B1E65" stroke-opacity="0.6" stroke-miterlimit="10"/>
<path d="M223.18 403.166L124.875 494.17L92.1738 492.162" stroke="#5B1E65" stroke-opacity="0.6" stroke-miterlimit="10"/>
<path d="M217.362 389.104L108.424 470.063" stroke="#5B1E65" stroke-opacity="0.6" stroke-miterlimit="10"/>
<path d="M208.533 385.89L87.3577 466.849L61.678 459.617L40.4121 472.474" stroke="#5B1E65" stroke-opacity="0.6" stroke-miterlimit="10"/>
<path d="M206.126 377.854L98.5927 437.117L69.7031 430.086" stroke="#5B1E65" stroke-opacity="0.6" stroke-miterlimit="10"/>
<path d="M199.105 363.189L92.1738 407.385" stroke="#5B1E65" stroke-opacity="0.6" stroke-miterlimit="10"/>
<path d="M199.104 353.948L50.0421 405.979L34.3936 446.559" stroke="#5B1E65" stroke-opacity="0.6" stroke-miterlimit="10"/>
<path d="M196.897 347.921L99.9967 377.854L78.1289 366.805" stroke="#5B1E65" stroke-opacity="0.6" stroke-miterlimit="10"/>
<path d="M206.127 337.073L97.3896 357.564" stroke="#5B1E65" stroke-opacity="0.6" stroke-miterlimit="10"/>
<path d="M190.075 334.26L69.7022 352.34L51.6462 380.265L10.9199 389.104" stroke="#5B1E65" stroke-opacity="0.6" stroke-miterlimit="10"/>
<path d="M196.898 326.626L56.4621 343.501L31.585 324.216" stroke="#5B1E65" stroke-opacity="0.6" stroke-miterlimit="10"/>
<path d="M190.076 307.341L49.6408 302.519L25.3655 280.22H0.889648" stroke="#5B1E65" stroke-opacity="0.6" stroke-miterlimit="10"/>
<path d="M184.66 311.358L46.2305 307.341" stroke="#5B1E65" stroke-opacity="0.6" stroke-miterlimit="10"/>
<path d="M190.077 302.318L53.4531 298.099" stroke="#5B1E65" stroke-opacity="0.6" stroke-miterlimit="10"/>
<path d="M201.713 298.1L73.1141 286.046L53.4531 255.912" stroke="#5B1E65" stroke-opacity="0.6" stroke-miterlimit="10"/>
<path d="M195.493 280.22L82.7432 249.684" stroke="#5B1E65" stroke-opacity="0.6" stroke-miterlimit="10"/>
<path d="M195.493 273.992L50.0417 223.167L13.9297 245.466" stroke="#5B1E65" stroke-opacity="0.6" stroke-miterlimit="10"/>
<path d="M201.713 269.171L104.612 230.801L95.3838 208.702" stroke="#5B1E65" stroke-opacity="0.6" stroke-miterlimit="10"/>
<path d="M206.125 260.934L115.444 214.93" stroke="#5B1E65" stroke-opacity="0.6" stroke-miterlimit="10"/>
<path d="M207.731 253.903L100.599 192.832L67.0951 204.484L31.585 186.403" stroke="#5B1E65" stroke-opacity="0.6" stroke-miterlimit="10"/>
<path d="M213.951 251.894L91.3709 177.564L85.9541 147.028" stroke="#5B1E65" stroke-opacity="0.6" stroke-miterlimit="10"/>
<path d="M215.956 237.832L111.231 155.667" stroke="#5B1E65" stroke-opacity="0.6" stroke-miterlimit="10"/>
<path d="M219.167 229.796L109.627 135.377V106.448L92.5742 90.7786" stroke="#5B1E65" stroke-opacity="0.6" stroke-miterlimit="10"/>
<path d="M231.004 226.783C230.001 225.778 139.119 138.591 139.119 138.591V106.247" stroke="#5B1E65" stroke-opacity="0.6" stroke-miterlimit="10"/>
<path d="M240.031 214.93L167.005 122.52" stroke="#5B1E65" stroke-opacity="0.6" stroke-miterlimit="10"/>
<path d="M248.657 211.314C249.46 210.31 155.97 81.3366 155.97 81.3366L115.444 77.3188" stroke="#5B1E65" stroke-opacity="0.6" stroke-miterlimit="10"/>
<path d="M252.469 205.086L197.499 122.52L201.712 94.9973" stroke="#5B1E65" stroke-opacity="0.6" stroke-miterlimit="10"/>
<path d="M259.491 201.671L215.956 115.689" stroke="#5B1E65" stroke-opacity="0.6" stroke-miterlimit="10"/>
<path d="M268.92 206.493C268.318 205.488 213.95 89.3723 213.95 89.3723L185.06 78.9259L163.594 40.7563" stroke="#5B1E65" stroke-opacity="0.6" stroke-miterlimit="10"/>
<path d="M278.951 214.93L219.166 71.6938L232.407 42.1626" stroke="#5B1E65" stroke-opacity="0.6" stroke-miterlimit="10"/>
<path d="M280.958 203.479L237.824 65.4662" stroke="#5B1E65" stroke-opacity="0.6" stroke-miterlimit="10"/>
<path d="M285.572 194.64L248.657 48.993L262.701 28.1002L257.485 1.78326" stroke="#5B1E65" stroke-opacity="0.6" stroke-miterlimit="10"/>
<path d="M293.597 194.64L268.921 71.292L288.983 44.5733" stroke="#5B1E65" stroke-opacity="0.6" stroke-miterlimit="10"/>
<path d="M308.243 194.64L301.622 73.1001" stroke="#5B1E65" stroke-opacity="0.6" stroke-miterlimit="10"/>
<path d="M321.684 191.627V33.1225H313.459L285.572 6.20288" stroke="#5B1E65" stroke-opacity="0.6" stroke-miterlimit="10"/>
<path d="M325.095 188.211V87.9661L330.311 76.1134L337.333 71.6938" stroke="#5B1E65" stroke-opacity="0.6" stroke-miterlimit="10"/>
<path d="M325.095 39.1492V196.85" stroke="#5B1E65" stroke-opacity="0.6" stroke-miterlimit="10"/>
<path d="M296.606 438.925C296.606 438.925 275.741 559.26 275.741 560.666C275.741 562.072 299.816 577.541 299.816 579.349C299.816 581.157 299.816 636.201 299.816 636.201" stroke="#5B1E65" stroke-opacity="0.6" stroke-miterlimit="10"/>
<path d="M292.393 537.764C292.393 535.554 299.816 423.055 299.816 423.055" stroke="#5B1E65" stroke-opacity="0.6" stroke-miterlimit="10"/>
<path d="M296.206 557.452L302.626 543.389L308.243 437.117" stroke="#5B1E65" stroke-opacity="0.6" stroke-miterlimit="10"/>
<path d="M346.505 199.68L376.397 64.279L403.08 48.2076" stroke="#5B1E65" stroke-opacity="0.6" stroke-miterlimit="10"/>
<path d="M355.735 197.872L393.652 72.1138" stroke="#5B1E65" stroke-opacity="0.6" stroke-miterlimit="10"/>
<path d="M362.957 197.872L411.306 64.0781L436.184 54.4353L445.813 31.7344" stroke="#5B1E65" stroke-opacity="0.6" stroke-miterlimit="10"/>
<path d="M366.568 206.712L418.93 94.6138L448.221 82.5603" stroke="#5B1E65" stroke-opacity="0.6" stroke-miterlimit="10"/>
<path d="M381.814 213.944L443.405 114.703" stroke="#5B1E65" stroke-opacity="0.6" stroke-miterlimit="10"/>
<path d="M392.046 213.944L478.113 90.596L467.28 48.2077" stroke="#5B1E65" stroke-opacity="0.6" stroke-miterlimit="10"/>
<path d="M396.46 217.56L456.647 141.422L481.725 137.002" stroke="#5B1E65" stroke-opacity="0.6" stroke-miterlimit="10"/>
<path d="M404.485 223.587L469.286 157.091" stroke="#5B1E65" stroke-opacity="0.6" stroke-miterlimit="10"/>
<path d="M407.495 230.819L492.96 144.636L492.96 110.685L517.837 82.5602" stroke="#5B1E65" stroke-opacity="0.6" stroke-miterlimit="10"/>
<path d="M412.71 233.631L511.014 142.627L543.716 144.636" stroke="#5B1E65" stroke-opacity="0.6" stroke-miterlimit="10"/>
<path d="M418.528 247.694L527.466 166.734" stroke="#5B1E65" stroke-opacity="0.6" stroke-miterlimit="10"/>
<path d="M427.356 250.908L548.532 169.948L574.212 177.181L595.478 164.323" stroke="#5B1E65" stroke-opacity="0.6" stroke-miterlimit="10"/>
<path d="M429.764 258.944L537.297 199.681L566.187 206.712" stroke="#5B1E65" stroke-opacity="0.6" stroke-miterlimit="10"/>
<path d="M436.784 273.609L543.716 229.413" stroke="#5B1E65" stroke-opacity="0.6" stroke-miterlimit="10"/>
<path d="M436.785 282.85L585.848 230.819L601.496 190.239" stroke="#5B1E65" stroke-opacity="0.6" stroke-miterlimit="10"/>
<path d="M438.992 288.877L535.893 258.944L557.761 269.993" stroke="#5B1E65" stroke-opacity="0.6" stroke-miterlimit="10"/>
<path d="M429.764 299.725L538.501 279.234" stroke="#5B1E65" stroke-opacity="0.6" stroke-miterlimit="10"/>
<path d="M445.814 302.537L566.187 284.457L584.243 256.533L624.97 247.694" stroke="#5B1E65" stroke-opacity="0.6" stroke-miterlimit="10"/>
<path d="M438.992 310.171L579.428 293.296L604.305 312.582" stroke="#5B1E65" stroke-opacity="0.6" stroke-miterlimit="10"/>
<path d="M445.813 329.457L586.249 334.278L610.524 356.577L635 356.577" stroke="#5B1E65" stroke-opacity="0.6" stroke-miterlimit="10"/>
<path d="M451.23 325.439L589.659 329.457" stroke="#5B1E65" stroke-opacity="0.6" stroke-miterlimit="10"/>
<path d="M445.813 334.479L582.437 338.698" stroke="#5B1E65" stroke-opacity="0.6" stroke-miterlimit="10"/>
<path d="M434.177 338.698L562.776 350.752L582.437 380.885" stroke="#5B1E65" stroke-opacity="0.6" stroke-miterlimit="10"/>
<path d="M440.397 356.577L553.146 387.113" stroke="#5B1E65" stroke-opacity="0.6" stroke-miterlimit="10"/>
<path d="M440.397 362.805L585.848 413.631L621.96 391.332" stroke="#5B1E65" stroke-opacity="0.6" stroke-miterlimit="10"/>
<path d="M434.176 367.627L531.277 405.997L540.506 428.095" stroke="#5B1E65" stroke-opacity="0.6" stroke-miterlimit="10"/>
<path d="M429.764 375.863L520.445 421.868" stroke="#5B1E65" stroke-opacity="0.6" stroke-miterlimit="10"/>
<path d="M428.159 382.894L535.291 443.966L568.795 432.314L604.305 450.394" stroke="#5B1E65" stroke-opacity="0.6" stroke-miterlimit="10"/>
<path d="M421.939 384.903L544.519 459.234L549.936 489.769" stroke="#5B1E65" stroke-opacity="0.6" stroke-miterlimit="10"/>
<path d="M419.933 398.966L524.658 481.131" stroke="#5B1E65" stroke-opacity="0.6" stroke-miterlimit="10"/>
<path d="M416.723 407.001L526.263 501.421L526.263 530.349L543.315 546.019" stroke="#5B1E65" stroke-opacity="0.6" stroke-miterlimit="10"/>
<path d="M404.886 410.015C405.889 411.019 496.771 498.207 496.771 498.207L496.771 530.55" stroke="#5B1E65" stroke-opacity="0.6" stroke-miterlimit="10"/>
<path d="M395.858 421.867L468.885 514.278" stroke="#5B1E65" stroke-opacity="0.6" stroke-miterlimit="10"/>
<path d="M387.232 425.484C386.43 426.488 479.92 555.461 479.92 555.461L520.445 559.479" stroke="#5B1E65" stroke-opacity="0.6" stroke-miterlimit="10"/>
<path d="M383.42 431.711L438.391 514.278L434.178 541.8" stroke="#5B1E65" stroke-opacity="0.6" stroke-miterlimit="10"/>
<path d="M376.399 435.126L419.934 521.108" stroke="#5B1E65" stroke-opacity="0.6" stroke-miterlimit="10"/>
<path d="M366.969 430.305C367.571 431.309 421.94 547.425 421.94 547.425L450.829 557.872L472.296 596.041" stroke="#5B1E65" stroke-opacity="0.6" stroke-miterlimit="10"/>
<path d="M356.938 421.867L416.724 565.104L403.483 594.635" stroke="#5B1E65" stroke-opacity="0.6" stroke-miterlimit="10"/>
<path d="M354.932 433.318L398.065 571.332" stroke="#5B1E65" stroke-opacity="0.6" stroke-miterlimit="10"/>
<path d="M350.318 442.158L387.232 587.805L373.189 608.697L378.405 635.014" stroke="#5B1E65" stroke-opacity="0.6" stroke-miterlimit="10"/>
<path d="M342.292 442.158L366.969 565.506L346.907 592.224" stroke="#5B1E65" stroke-opacity="0.6" stroke-miterlimit="10"/>
<path d="M327.647 442.158L334.268 563.698" stroke="#5B1E65" stroke-opacity="0.6" stroke-miterlimit="10"/>
<path d="M314.205 445.171L314.205 603.675L322.431 603.675L350.317 630.595" stroke="#5B1E65" stroke-opacity="0.6" stroke-miterlimit="10"/>
<path d="M310.795 448.586L310.795 548.832L305.579 560.684L298.557 565.104" stroke="#5B1E65" stroke-opacity="0.6" stroke-miterlimit="10"/>
<path d="M310.795 597.648L310.795 439.948" stroke="#5B1E65" stroke-opacity="0.6" stroke-miterlimit="10"/>
<path d="M339.284 197.872C339.284 197.872 360.148 77.5379 360.148 76.1317C360.148 74.7254 336.074 59.2568 336.074 57.4487C336.074 55.6407 336.074 0.596133 336.074 0.596133" stroke="#5B1E65" stroke-opacity="0.6" stroke-miterlimit="10"/>
<path d="M343.497 99.0334C343.497 101.243 336.074 213.743 336.074 213.743" stroke="#5B1E65" stroke-opacity="0.6" stroke-miterlimit="10"/>
<path d="M339.684 79.3459L333.264 93.4084L327.646 199.68" stroke="#5B1E65" stroke-opacity="0.6" stroke-miterlimit="10"/>
</g>
<path d="M164.949 128.932L244.125 84.1605L323.37 130.575L243.92 176.853L164.949 128.932Z" fill="#0F0F34"/>
<path d="M243.92 176.853L244.673 275.365L164.881 227.444L164.949 128.932L243.92 176.853Z" fill="#161342"/>
<path d="M244.422 177.139L322.869 131.378L322.802 226.89L245.166 274.476L244.422 177.139Z" fill="#26165B" stroke="url(#paint0_linear_267_1776)"/>
<path d="M85.7725 272.421L164.47 227.649L243.167 274.064L164.264 320.342L85.7725 272.421Z" fill="#0F0F34"/>
<path d="M164.264 320.342L165.017 418.853L85.7041 370.932L85.7725 272.421L164.264 320.342Z" fill="#161342"/>
<path d="M164.699 320.627L242.667 274.869L242.599 370.38L165.51 417.962L164.699 320.627Z" fill="#26165B" stroke="url(#paint1_linear_267_1776)"/>
<path d="M560.215 272.421L481.586 227.649L402.889 274.064L481.791 320.342L560.215 272.421Z" fill="#0F0F34"/>
<path d="M481.791 320.342L481.038 418.853L560.351 370.932L560.214 272.421L481.791 320.342Z" fill="#161342"/>
<path d="M403.322 274.869L481.289 320.627L480.545 417.961L403.457 370.379L403.322 274.869Z" fill="#26165B" stroke="url(#paint2_linear_267_1776)"/>
<path d="M324.22 417.141L401.935 371.305L479.643 415.582L402.131 462.837L324.22 417.141Z" fill="#26165B" stroke="url(#paint3_linear_267_1776)"/>
<path d="M402.136 463.42L401.383 562L480.696 514.079L480.628 415.568L402.136 463.42Z" fill="#161342"/>
<path d="M402.136 463.42L401.383 562L323.302 513.805L323.233 417.142L402.136 463.42Z" fill="#26165B"/>
<path d="M244.473 462.837L167.028 415.582L244.737 371.305L322.452 417.141L244.473 462.837Z" fill="#26165B" stroke="url(#paint4_linear_267_1776)"/>
<path d="M244.468 463.42L245.22 562L165.976 514.079L166.044 415.568L244.468 463.42Z" fill="#161342"/>
<path d="M244.468 463.42L245.289 562L323.37 513.805L323.439 417.142L244.468 463.42Z" fill="#26165B"/>
<path d="M481.791 128.932L402.615 84.1605L323.37 130.575L402.82 176.853L481.791 128.932Z" fill="#0F0F34"/>
<path d="M402.82 176.853L402.067 275.365L481.86 227.444L481.791 128.932L402.82 176.853Z" fill="#161342"/>
<path d="M323.871 131.378L402.318 177.139L401.574 274.476L323.938 226.89L323.871 131.378Z" fill="#26165B" stroke="url(#paint5_linear_267_1776)"/>
<path d="M322.729 315.644L321.908 423.808L408.886 371.164L408.817 263L322.729 315.644Z" fill="url(#paint6_linear_267_1776)" stroke="url(#paint7_linear_267_1776)" stroke-miterlimit="10" stroke-linejoin="round"/>
<path d="M322.704 315.864L321.814 424.028L236.068 371.11L236 265L322.704 315.864Z" fill="url(#paint8_linear_267_1776)" stroke="url(#paint9_linear_267_1776)" stroke-miterlimit="10" stroke-linejoin="round"/>
<path d="M409 263.251L322.534 214L236 265.034L322.808 316L409 263.251Z" fill="url(#paint10_linear_267_1776)" stroke="url(#paint11_linear_267_1776)" stroke-miterlimit="10" stroke-linejoin="round"/>
<path d="M322.5 599C476.864 599 602 473.863 602 319.5C602 165.136 476.864 39.9998 322.5 39.9998C168.136 39.9998 43 165.136 43 319.5C43 473.863 168.136 599 322.5 599Z" fill="url(#paint12_radial_267_1776)" fill-opacity="0.8"/>
<path d="M363.186 292.086V292.094C363.186 294.597 363.186 297.12 363.306 299.764C363.545 312.401 363.802 327.141 358.838 340.525C353.899 353.843 343.768 365.87 323.081 373.035L322.082 373.235L321.083 373.035C300.337 365.87 290.207 353.813 285.282 340.481C280.338 327.096 280.619 312.373 280.858 299.804L280.859 299.764C280.979 297.12 280.979 294.597 280.979 292.094V292.086C280.979 290.468 282.198 289.249 283.816 289.249C298.928 289.249 310.482 284.888 320.086 275.532C321.232 274.489 322.933 274.489 324.079 275.532C333.683 284.888 345.237 289.249 360.349 289.249C361.967 289.249 363.186 290.468 363.186 292.086Z" fill="url(#paint13_linear_267_1776)" stroke="url(#paint14_linear_267_1776)" stroke-width="1.5"/>
<path d="M329.756 320.58H329.268V316.547C329.268 312.551 326.049 309.278 322 309.278C317.992 309.278 314.731 312.539 314.731 316.547V320.58H314.244C312.813 320.58 311.653 321.74 311.653 323.171V334.131C311.653 335.561 312.813 336.721 314.244 336.721H329.756C331.186 336.721 332.346 335.561 332.346 334.131V323.171C332.346 321.74 331.186 320.58 329.756 320.58ZM323.841 331.405C323.932 331.923 323.533 332.397 323.008 332.397H320.992C320.467 332.397 320.068 331.923 320.158 331.405L320.595 328.904C319.945 328.375 319.589 327.505 319.823 326.577C320.036 325.732 320.764 325.07 321.625 324.934C323.038 324.71 324.249 325.789 324.249 327.15C324.249 327.854 323.919 328.486 323.405 328.904L323.841 331.405ZM325.84 320.58H318.159V316.547C318.159 314.43 319.882 312.707 322 312.707C324.177 312.707 325.84 314.472 325.84 316.547V320.58Z" fill="url(#paint15_linear_267_1776)"/>
<defs>
<linearGradient id="paint0_linear_267_1776" x1="283.645" y1="130.507" x2="283.645" y2="275.365" gradientUnits="userSpaceOnUse">
<stop stop-color="#9F50E3"/>
<stop offset="1" stop-color="#3F2FB8"/>
</linearGradient>
<linearGradient id="paint1_linear_267_1776" x1="203.682" y1="273.995" x2="203.682" y2="418.853" gradientUnits="userSpaceOnUse">
<stop stop-color="#9F50E3"/>
<stop offset="1" stop-color="#3F2FB8"/>
</linearGradient>
<linearGradient id="paint2_linear_267_1776" x1="442.306" y1="273.995" x2="442.306" y2="418.853" gradientUnits="userSpaceOnUse">
<stop stop-color="#9F50E3"/>
<stop offset="1" stop-color="#3F2FB8"/>
</linearGradient>
<linearGradient id="paint3_linear_267_1776" x1="401.931" y1="370.727" x2="401.931" y2="463.42" gradientUnits="userSpaceOnUse">
<stop stop-color="#9F50E3"/>
<stop offset="1" stop-color="#3F2FB8"/>
</linearGradient>
<linearGradient id="paint4_linear_267_1776" x1="244.741" y1="370.727" x2="244.741" y2="463.42" gradientUnits="userSpaceOnUse">
<stop stop-color="#9F50E3"/>
<stop offset="1" stop-color="#3F2FB8"/>
</linearGradient>
<linearGradient id="paint5_linear_267_1776" x1="363.095" y1="130.507" x2="363.095" y2="275.365" gradientUnits="userSpaceOnUse">
<stop stop-color="#9F50E3"/>
<stop offset="1" stop-color="#3F2FB8"/>
</linearGradient>
<linearGradient id="paint6_linear_267_1776" x1="363.129" y1="205.234" x2="396.39" y2="408.472" gradientUnits="userSpaceOnUse">
<stop stop-color="#141A56"/>
<stop offset="0.2201" stop-color="#191B58"/>
<stop offset="0.4775" stop-color="#271C5D"/>
<stop offset="0.7525" stop-color="#3E1F66"/>
<stop offset="1" stop-color="#5A2270"/>
</linearGradient>
<linearGradient id="paint7_linear_267_1776" x1="365.397" y1="263" x2="365.397" y2="423.808" gradientUnits="userSpaceOnUse">
<stop stop-color="#9F50E3"/>
<stop offset="1" stop-color="#551781"/>
</linearGradient>
<linearGradient id="paint8_linear_267_1776" x1="277.091" y1="207.873" x2="309.736" y2="408.945" gradientUnits="userSpaceOnUse">
<stop stop-color="#141A56"/>
<stop offset="0.2201" stop-color="#191B58"/>
<stop offset="0.4775" stop-color="#271C5D"/>
<stop offset="0.7525" stop-color="#3E1F66"/>
<stop offset="1" stop-color="#5A2270"/>
</linearGradient>
<linearGradient id="paint9_linear_267_1776" x1="279.352" y1="265" x2="279.352" y2="424.028" gradientUnits="userSpaceOnUse">
<stop stop-color="#9F50E3"/>
<stop offset="1" stop-color="#551781"/>
</linearGradient>
<linearGradient id="paint10_linear_267_1776" x1="317.989" y1="177.359" x2="324.878" y2="309.365" gradientUnits="userSpaceOnUse">
<stop stop-color="#141A56"/>
<stop offset="0.2201" stop-color="#191B58"/>
<stop offset="0.4775" stop-color="#271C5D"/>
<stop offset="0.7525" stop-color="#3E1F66"/>
<stop offset="1" stop-color="#5A2270"/>
</linearGradient>
<linearGradient id="paint11_linear_267_1776" x1="322.5" y1="214" x2="322.5" y2="316" gradientUnits="userSpaceOnUse">
<stop stop-color="#551781"/>
<stop offset="1" stop-color="#9F50E3"/>
</linearGradient>
<radialGradient id="paint12_radial_267_1776" cx="0" cy="0" r="1" gradientUnits="userSpaceOnUse" gradientTransform="translate(322.485 319.484) scale(221.015)">
<stop offset="2.42203e-07" stop-color="#9900CC"/>
<stop offset="1" stop-color="#9900CC" stop-opacity="0"/>
</radialGradient>
<linearGradient id="paint13_linear_267_1776" x1="341.081" y1="289" x2="307.081" y2="355.5" gradientUnits="userSpaceOnUse">
<stop offset="0.0432911" stop-color="#55209B"/>
<stop offset="0.50224" stop-color="#4E2394"/>
<stop offset="1" stop-color="#6130C8"/>
</linearGradient>
<linearGradient id="paint14_linear_267_1776" x1="355.5" y1="288" x2="288" y2="355.5" gradientUnits="userSpaceOnUse">
<stop stop-color="#AE5AF1"/>
<stop offset="0.526524" stop-color="#6737E6"/>
<stop offset="1" stop-color="#A652F2"/>
</linearGradient>
<linearGradient id="paint15_linear_267_1776" x1="322" y1="309.278" x2="322" y2="336.721" gradientUnits="userSpaceOnUse">
<stop stop-color="#E4E1F6"/>
<stop offset="1" stop-color="#896FCA"/>
</linearGradient>
</defs>
</svg>
