<svg width="33" height="33" viewBox="0 0 33 33" fill="none" xmlns="http://www.w3.org/2000/svg">
<circle cx="16.5" cy="16.5" r="16.5" fill="url(#paint0_linear_392_1534)"/>
<path d="M25.3465 15.9018C25.3465 11.6124 21.708 8.13504 16.6015 8.13504C11.495 8.13504 7.85645 11.6124 7.85645 15.9018C7.85645 19.4032 10.1141 22.3626 13.905 23.332C13.7017 23.9992 13.2569 24.5092 12.6077 25.2733C12.48 25.4234 12.4039 25.6105 12.3906 25.8072C12.3772 26.0038 12.4274 26.1995 12.5337 26.3654C12.64 26.5313 12.7967 26.6588 12.9809 26.7289C13.165 26.7991 13.3668 26.8082 13.5566 26.755C15.6676 26.1668 17.3771 24.9992 18.5223 23.5022L18.5198 23.5008C22.7055 22.7581 25.3465 19.6387 25.3465 15.9018Z" fill="#9917CC"/>
<path d="M7.85594 15.9018C7.85217 14.3407 8.34939 12.8196 9.2745 11.5621C8.85927 11.587 7.63547 11.7559 6.99926 12.3901C6.29775 13.0884 6.26768 14.0014 6.22325 15.3239C6.17749 16.6795 6.14759 17.5726 6.79215 18.2744C7.30241 18.7922 7.8658 19.0362 8.50016 18.9926C8.07037 18.0191 7.85084 16.9659 7.85594 15.9018Z" fill="#4E1664"/>
<path d="M26.978 15.3237C26.9336 14.0012 26.9028 13.0882 26.202 12.3899C25.5658 11.7552 24.342 11.5868 23.9268 11.562C24.8519 12.8194 25.3491 14.3405 25.3453 15.9016C25.3488 16.9668 25.1243 18.0204 24.6869 18.9916C25.3271 19.0376 25.8952 18.7974 26.4091 18.2734C27.0537 17.5724 27.0238 16.6793 26.978 15.3237Z" fill="#4E1664"/>
<path d="M16.6009 8.13507C18.2357 8.12712 19.8501 8.49876 21.3169 9.22074C21.3478 8.66688 21.2928 7.82858 20.7954 7.1922C20.0343 6.21944 18.7153 6.21075 16.6009 6.21075C14.4865 6.21075 13.1675 6.21977 12.4063 7.19337C11.9089 7.82975 11.854 8.66805 11.8849 9.22191C13.3516 8.49953 14.966 8.12748 16.6009 8.13507Z" fill="#4E1664"/>
<path d="M16.6011 9.55481C12.3463 9.55481 9.31875 13.2498 9.76655 17.4413C9.84562 18.2086 10.2058 18.9194 10.7777 19.437C11.3496 19.9545 12.0927 20.2422 12.8641 20.2445C14.7326 20.2392 14.7326 19.2016 16.6011 19.2016C18.4696 19.2016 18.4696 20.2392 20.3382 20.2445C21.1095 20.2422 21.8527 19.9545 22.4246 19.437C22.9965 18.9194 23.3566 18.2086 23.4357 17.4413C23.8835 13.2498 20.856 9.55481 16.6011 9.55481Z" fill="#4E1664"/>
<path d="M18.1413 15.526C17.9983 15.3887 17.8074 15.3125 17.6092 15.3136C17.4109 15.3147 17.2209 15.3931 17.0795 15.532C17.0235 15.604 16.9518 15.6623 16.8699 15.7024C16.788 15.7425 16.6981 15.7634 16.6069 15.7635C16.5157 15.7636 16.4256 15.7429 16.3436 15.703C16.2616 15.6631 16.1898 15.605 16.1336 15.5332C15.9937 15.3912 15.8031 15.3106 15.6038 15.3092C15.4044 15.3078 15.2127 15.3856 15.0707 15.5255C14.9287 15.6654 14.8481 15.856 14.8467 16.0554C14.8453 16.2547 14.9231 16.4465 15.063 16.5885C15.2596 16.8015 15.4982 16.9716 15.7637 17.0879C16.0292 17.2042 16.316 17.2643 16.6059 17.2643C16.8958 17.2643 17.1826 17.2042 17.4481 17.0879C17.7137 16.9716 17.9522 16.8015 18.1488 16.5885C18.2875 16.4459 18.3645 16.2545 18.3631 16.0557C18.3616 15.8568 18.282 15.6665 18.1413 15.526Z" fill="white"/>
<path d="M20.1917 13.1744C20.194 13.0738 20.1763 12.9736 20.1397 12.8798C20.103 12.786 20.0482 12.7004 19.9784 12.6278C19.9085 12.5553 19.825 12.4973 19.7326 12.4573C19.6402 12.4172 19.5408 12.3958 19.4401 12.3943C19.241 12.395 19.0502 12.4744 18.9094 12.6152C18.7686 12.756 18.6892 12.9468 18.6885 13.1459V14.3151C18.6887 14.5143 18.768 14.7054 18.9089 14.8463C19.0498 14.9872 19.2408 15.0665 19.4401 15.0667C19.5409 15.0654 19.6403 15.0441 19.7328 15.0041C19.8253 14.9641 19.9089 14.9061 19.9788 14.8335C20.0487 14.761 20.1035 14.6753 20.1401 14.5814C20.1766 14.4875 20.1942 14.3872 20.1917 14.2865C20.1917 14.0084 20.1917 13.4525 20.1917 13.1744Z" fill="white"/>
<path d="M13.7616 12.3943C13.6609 12.3957 13.5615 12.4171 13.4691 12.4572C13.3767 12.4973 13.2931 12.5553 13.2233 12.6278C13.1534 12.7003 13.0986 12.786 13.062 12.8798C13.0254 12.9736 13.0077 13.0738 13.01 13.1744C13.0108 13.4525 13.0108 14.0084 13.01 14.2865C13.0077 14.3872 13.0254 14.4873 13.062 14.5811C13.0986 14.6749 13.1535 14.7606 13.2233 14.8331C13.2932 14.9056 13.3767 14.9636 13.4691 15.0037C13.5615 15.0438 13.6609 15.0652 13.7616 15.0667C13.9607 15.066 14.1515 14.9866 14.2923 14.8458C14.4331 14.705 14.5125 14.5142 14.5132 14.3151V13.1459C14.5125 12.9468 14.4331 12.756 14.2923 12.6152C14.1515 12.4744 13.9607 12.395 13.7616 12.3943Z" fill="white"/>
<path d="M16.6012 21.8312C17.0163 21.8312 17.3529 21.4947 17.3529 21.0796C17.3529 20.6645 17.0163 20.328 16.6012 20.328C16.1861 20.328 15.8496 20.6645 15.8496 21.0796C15.8496 21.4947 16.1861 21.8312 16.6012 21.8312Z" fill="white"/>
<defs>
<linearGradient id="paint0_linear_392_1534" x1="33" y1="-0.000260117" x2="1.16243" y2="0.0918026" gradientUnits="userSpaceOnUse">
<stop stop-color="#DD77CD"/>
<stop offset="1" stop-color="#9A5AEC"/>
</linearGradient>
</defs>
</svg>
