<svg width="49" height="49" viewBox="0 0 49 49" fill="none" xmlns="http://www.w3.org/2000/svg">
<path d="M44.9527 23.5238C44.9527 13.4922 36.4434 5.35977 24.5008 5.35977C12.5582 5.35977 4.04883 13.4922 4.04883 23.5238C4.04883 31.7125 9.32891 38.6336 18.1945 40.9008C17.7191 42.4613 16.6789 43.6539 15.1605 45.441C14.8619 45.792 14.6839 46.2297 14.6528 46.6895C14.6216 47.1493 14.7389 47.607 14.9875 47.9951C15.236 48.3832 15.6026 48.6812 16.0333 48.8452C16.464 49.0093 16.9359 49.0307 17.3797 48.9063C22.3168 47.5305 26.3148 44.8 28.993 41.2988L28.9871 41.2957C38.7762 39.5586 44.9527 32.2633 44.9527 23.5238Z" fill="#9917CC"/>
<path d="M4.04838 23.5238C4.03955 19.8729 5.20241 16.3154 7.36596 13.3746C6.39487 13.4328 3.53276 13.8277 2.04487 15.3109C0.404241 16.9441 0.333929 19.0793 0.230022 22.1723C0.122991 25.3426 0.0530692 27.4312 1.56049 29.0726C2.75385 30.2836 4.07143 30.8543 5.55502 30.7523C4.54986 28.4757 4.03646 26.0125 4.04838 23.5238Z" fill="#D05FFC"/>
<path d="M48.7707 22.1719C48.6668 19.0789 48.5949 16.9437 46.9559 15.3105C45.468 13.8262 42.6059 13.4324 41.6348 13.3742C43.7983 16.315 44.9612 19.8725 44.9523 23.5234C44.9606 26.0146 44.4355 28.4786 43.4125 30.75C44.9098 30.8574 46.2383 30.2957 47.4402 29.0703C48.9477 27.4308 48.8777 25.3422 48.7707 22.1719Z" fill="#D05FFC"/>
<path d="M24.5006 5.35977C28.324 5.34117 32.0995 6.21033 35.5299 7.89883C35.6022 6.60352 35.4737 4.64297 34.3104 3.15469C32.5303 0.879688 29.4456 0.859375 24.5006 0.859375C19.5557 0.859375 16.4709 0.880469 14.6909 3.15742C13.5276 4.6457 13.3991 6.60625 13.4713 7.90156C16.9015 6.21212 20.677 5.34202 24.5006 5.35977Z" fill="#D05FFC"/>
<path d="M24.5007 8.68008C14.5499 8.68008 7.46945 17.3215 8.51672 27.1242C8.70163 28.9186 9.54395 30.5811 10.8814 31.7915C12.2189 33.0019 13.957 33.6746 15.7609 33.6801C20.1308 33.6676 20.1308 31.241 24.5007 31.241C28.8706 31.241 28.8706 33.6676 33.2406 33.6801C35.0444 33.6746 36.7825 33.0019 38.12 31.7915C39.4575 30.5811 40.2998 28.9186 40.4847 27.1242C41.532 17.3215 34.4515 8.68008 24.5007 8.68008Z" fill="#4E1664"/>
<path d="M28.1036 22.6449C27.7692 22.3238 27.3228 22.1456 26.8591 22.1482C26.3955 22.1509 25.9511 22.3341 25.6204 22.659C25.4894 22.8273 25.3218 22.9636 25.1302 23.0574C24.9387 23.1512 24.7283 23.2001 24.515 23.2004C24.3017 23.2006 24.0912 23.1523 23.8994 23.0589C23.7076 22.9656 23.5396 22.8297 23.4083 22.6617C23.081 22.3297 22.6352 22.1413 22.169 22.1379C21.7028 22.1345 21.2544 22.3165 20.9223 22.6438C20.5903 22.971 20.4019 23.4168 20.3985 23.883C20.3951 24.3492 20.5771 24.7977 20.9044 25.1297C21.3641 25.628 21.922 26.0257 22.5431 26.2977C23.1641 26.5698 23.8348 26.7102 24.5128 26.7102C25.1907 26.7102 25.8614 26.5698 26.4824 26.2977C27.1035 26.0257 27.6614 25.628 28.1211 25.1297C28.4455 24.7964 28.6255 24.3488 28.6222 23.8837C28.6189 23.4187 28.4326 22.9736 28.1036 22.6449Z" fill="white"/>
<path d="M32.8984 17.1453C32.9037 16.9099 32.8624 16.6757 32.7767 16.4563C32.6911 16.2369 32.5629 16.0366 32.3994 15.867C32.236 15.6974 32.0407 15.5618 31.8246 15.468C31.6086 15.3743 31.3761 15.3242 31.1406 15.3207C30.6749 15.3224 30.2288 15.5081 29.8995 15.8374C29.5702 16.1667 29.3845 16.6128 29.3828 17.0785V19.8129C29.3833 20.2789 29.5687 20.7257 29.8982 21.0553C30.2278 21.3848 30.6746 21.5702 31.1406 21.5707C31.3763 21.5677 31.6089 21.5179 31.8252 21.4243C32.0415 21.3307 32.237 21.1951 32.4005 21.0254C32.564 20.8557 32.6922 20.6553 32.7777 20.4357C32.8631 20.2161 32.9042 19.9817 32.8984 19.7461C32.8984 19.0957 32.8984 17.7957 32.8984 17.1453Z" fill="white"/>
<path d="M17.8598 15.3207C17.6243 15.3242 17.3918 15.3742 17.1758 15.4679C16.9597 15.5617 16.7643 15.6973 16.6009 15.8669C16.4375 16.0365 16.3093 16.2368 16.2236 16.4562C16.138 16.6756 16.0967 16.9098 16.102 17.1453C16.104 17.7957 16.104 19.0957 16.102 19.7461C16.0967 19.9816 16.1381 20.2157 16.2237 20.4351C16.3094 20.6545 16.4376 20.8548 16.601 21.0244C16.7644 21.194 16.9598 21.3296 17.1758 21.4234C17.3919 21.5171 17.6243 21.5672 17.8598 21.5707C18.3256 21.5692 18.7718 21.3835 19.1011 21.0542C19.4304 20.7248 19.6161 20.2786 19.6176 19.8129V17.0785C19.616 16.6128 19.4303 16.1667 19.101 15.8374C18.7717 15.5081 18.3255 15.3224 17.8598 15.3207Z" fill="white"/>
<path d="M24.5 37.391C25.4708 37.391 26.2578 36.604 26.2578 35.6332C26.2578 34.6624 25.4708 33.8754 24.5 33.8754C23.5292 33.8754 22.7422 34.6624 22.7422 35.6332C22.7422 36.604 23.5292 37.391 24.5 37.391Z" fill="#4E1664"/>
</svg>
