<?xml version="1.0" standalone="no"?>
<!DOCTYPE svg PUBLIC "-//W3C//DTD SVG 20010904//EN"
 "http://www.w3.org/TR/2001/REC-SVG-20010904/DTD/svg10.dtd">
<svg version="1.0" xmlns="http://www.w3.org/2000/svg"
 width="512.000000pt" height="512.000000pt" viewBox="0 0 512.000000 512.000000"
 preserveAspectRatio="xMidYMid meet">
<metadata>
Created by potrace 1.14, written by Peter Selinger 2001-2017
</metadata>
<g transform="translate(0.000000,512.000000) scale(0.100000,-0.100000)"
fill="#000000" stroke="none">
<path d="M569 5026 c-7 -6 -6 -47 1 -51 6 -4 7 1 3 12 -6 16 -5 16 10 5 16
-14 50 -4 47 14 -1 5 4 10 12 12 9 2 8 0 -2 -7 -13 -10 -13 -11 0 -11 12 0 12
-2 1 -9 -9 -6 -10 -11 -2 -15 10 -6 13 0 10 20 -1 8 23 24 36 24 6 0 4 -4 -4
-9 -8 -5 -11 -16 -8 -26 4 -9 12 -13 18 -10 6 4 8 13 5 21 -3 7 -1 16 4 19 6
4 10 1 10 -4 0 -6 4 -11 8 -11 5 0 9 6 9 13 0 9 -22 13 -79 13 -43 0 -78 0
-79 0z m41 -23 c0 -17 -15 -16 -30 1 -9 12 -8 15 9 13 12 -1 21 -7 21 -14z"/>
<path d="M746 5012 c2 -7 -8 -17 -21 -22 -29 -11 -32 -18 -7 -16 9 0 20 6 25
13 4 7 14 10 21 7 8 -3 17 -1 21 5 4 7 0 8 -11 4 -13 -5 -15 -3 -9 7 5 8 4 11
-3 6 -5 -3 -12 -3 -15 1 -2 5 -2 2 -1 -5z"/>
<path d="M4255 5020 c-3 -5 -1 -10 4 -10 6 0 11 5 11 10 0 6 -2 10 -4 10 -3 0
-8 -4 -11 -10z"/>
<path d="M4301 5016 c-15 -18 -3 -26 33 -22 20 3 26 0 22 -11 -4 -8 -1 -11 5
-8 6 4 8 13 5 20 -2 7 1 19 7 26 9 10 7 10 -6 -1 -10 -7 -29 -15 -43 -16 -21
-2 -23 0 -13 12 6 8 9 14 6 14 -2 0 -10 -6 -16 -14z"/>
<path d="M4394 5022 c3 -5 0 -12 -6 -15 -7 -2 -10 -7 -7 -11 3 -4 12 0 18 8 9
11 9 16 0 22 -7 4 -9 3 -5 -4z"/>
<path d="M4419 5009 c-6 -13 -7 -19 -1 -15 6 3 13 0 16 -6 3 -7 3 -2 0 11 -4
16 -3 21 5 17 6 -4 11 -2 11 3 0 19 -19 12 -31 -10z"/>
<path d="M513 4987 c0 -8 6 -14 14 -14 9 0 10 4 2 14 -6 7 -12 13 -14 13 -1 0
-2 -6 -2 -13z"/>
<path d="M835 4989 c-4 -6 -5 -12 -2 -15 2 -3 7 2 10 11 7 17 1 20 -8 4z"/>
<path d="M4273 4983 c16 -15 -15 -31 -43 -23 -17 5 -32 5 -35 0 -3 -4 -14 -6
-25 -3 -11 3 -20 1 -20 -3 0 -5 -10 -15 -22 -23 -23 -14 -23 -14 -4 8 19 21
19 21 -5 18 -13 -2 -24 -8 -23 -13 1 -5 -6 -15 -15 -22 -9 -7 -11 -11 -6 -10
10 3 15 -4 15 -20 0 -5 -10 -8 -22 -7 -13 2 -22 7 -21 13 1 5 -5 16 -15 24
-15 11 -16 11 -5 -3 9 -11 9 -19 2 -26 -6 -6 -11 -28 -11 -48 0 -35 -1 -36
-15 -16 -8 12 -20 21 -26 21 -7 0 -4 -5 6 -11 26 -15 21 -29 -11 -29 -26 0
-28 -3 -26 -35 2 -21 -1 -33 -6 -30 -5 3 -19 1 -31 -6 -20 -10 -21 -9 -16 17
l6 29 -12 -28 c-8 -19 -17 -27 -28 -24 -12 3 -16 0 -12 -9 2 -7 10 -12 16 -10
7 1 9 1 6 -1 -4 -2 -5 -12 -2 -22 3 -12 -2 -20 -16 -24 -22 -5 -30 8 -9 15 8
3 8 9 -1 24 -8 13 -11 14 -7 3 2 -9 -5 -27 -16 -38 -11 -12 -17 -29 -14 -37 3
-8 2 -13 -3 -10 -5 3 -11 -1 -14 -9 -4 -10 -1 -12 10 -8 11 4 14 3 9 -6 -4 -6
-15 -11 -24 -10 -39 3 -72 -2 -72 -12 0 -5 5 -7 10 -4 14 9 12 -8 -2 -24 -10
-11 -10 -13 0 -7 7 5 12 1 12 -9 0 -11 -5 -15 -15 -12 -8 4 -17 2 -19 -2 -3
-5 -18 -7 -33 -5 -29 3 -48 -8 -64 -37 -8 -15 -6 -17 6 -13 9 4 14 9 11 11 -3
3 2 12 10 20 23 24 47 -1 32 -33 -7 -15 -15 -21 -21 -15 -11 11 -39 3 -50 -15
-4 -7 -15 -11 -25 -8 -9 2 -7 -1 6 -7 34 -18 24 -43 -18 -43 -32 0 -64 -22
-54 -37 2 -4 -3 -10 -12 -13 -9 -3 -14 -12 -11 -20 4 -10 0 -12 -15 -8 -17 4
-20 2 -15 -12 4 -10 3 -15 -3 -11 -7 4 -9 -6 -6 -27 3 -18 3 -28 0 -22 -3 7
-15 10 -27 7 -20 -4 -21 -3 -4 10 18 15 24 33 8 23 -5 -4 -11 -3 -14 1 -2 5
-2 3 -1 -4 2 -6 -4 -17 -12 -23 -8 -7 -14 -19 -14 -26 0 -18 -10 -18 -37 1
-14 10 -24 12 -28 5 -3 -5 -4 -11 -1 -11 17 -4 23 -6 44 -13 14 -5 22 -15 21
-29 0 -20 -1 -21 -8 -3 -7 18 -8 18 -14 2 -4 -9 -11 -15 -16 -12 -5 4 -11 3
-14 -1 -2 -5 -2 -2 -1 5 2 6 -1 12 -6 12 -16 0 -20 -52 -6 -62 15 -10 -33 -26
-72 -23 -17 1 -30 0 -27 -3 3 -3 0 -11 -7 -19 -6 -7 -8 -16 -4 -20 3 -3 6 -1
6 5 0 17 37 35 45 22 4 -6 1 -9 -6 -8 -9 2 -13 -7 -13 -24 1 -26 -2 -28 -37
-28 -31 0 -39 -4 -39 -18 0 -10 6 -24 13 -31 10 -11 10 -13 0 -7 -13 7 -17 -3
-14 -34 1 -11 -1 -11 -9 3 -12 19 -45 23 -56 5 -5 -7 -3 -8 6 -3 10 6 11 4 4
-6 -8 -14 -14 -33 -16 -55 -2 -15 -28 -14 -28 2 0 16 -28 26 -36 12 -4 -6 -3
-8 4 -4 6 3 13 2 17 -4 3 -5 0 -10 -8 -10 -8 0 -21 -7 -28 -17 -13 -15 -12
-15 11 -3 24 12 24 12 9 -6 -9 -10 -14 -24 -12 -31 3 -7 -10 -13 -34 -15 -24
-2 -37 -8 -35 -15 1 -7 -4 -13 -10 -13 -9 0 -8 -4 2 -10 8 -5 11 -10 5 -10 -5
0 -4 -4 3 -9 10 -6 7 -10 -12 -13 -15 -3 -26 -1 -26 5 0 6 -7 2 -16 -9 -8 -10
-12 -12 -8 -4 7 13 6 13 -10 0 -12 -9 -14 -16 -7 -18 9 -3 9 -8 1 -17 -8 -10
-8 -15 1 -21 8 -5 9 -3 4 6 -5 9 -4 11 4 6 9 -6 9 -11 0 -22 -6 -7 -16 -11
-23 -7 -16 10 -56 15 -56 7 0 -4 8 -13 18 -20 16 -13 16 -14 -1 -8 -15 6 -18
2 -15 -17 3 -21 -1 -24 -36 -27 -43 -3 -59 -12 -38 -19 10 -4 9 -10 -5 -26
-10 -11 -12 -17 -5 -13 7 4 12 1 12 -8 0 -16 -20 -18 -31 -3 -14 19 -39 -6
-39 -39 0 -35 -7 -39 -53 -34 -14 1 -17 -4 -13 -24 3 -14 0 -28 -5 -32 -5 -3
-7 -8 -5 -12 2 -4 -13 -7 -34 -7 -29 -1 -36 2 -29 11 7 8 6 14 -1 19 -8 5 -7
12 2 23 7 10 0 6 -15 -7 -15 -14 -27 -29 -27 -35 0 -6 5 -5 12 2 7 7 16 12 22
12 5 0 1 -6 -10 -14 -14 -11 -22 -11 -32 -3 -11 9 -10 12 2 19 9 5 21 19 27
31 l12 22 -25 -22 c-32 -30 -45 -29 -45 2 -1 36 -9 41 -35 19 -23 -19 -23 -19
-5 2 21 25 22 34 2 34 -8 0 -15 5 -15 11 0 7 10 5 25 -5 24 -15 25 -15 25 2 0
12 -8 18 -22 19 -51 3 -67 7 -59 18 4 5 8 20 9 33 1 20 -4 22 -46 23 -26 0
-41 3 -34 6 14 6 16 59 2 68 -5 3 -10 1 -10 -4 0 -6 -5 -11 -11 -11 -5 0 -7 4
-4 10 4 7 -2 7 -19 0 -19 -7 -25 -6 -23 2 1 6 -10 13 -26 14 -15 2 -25 -1 -22
-7 9 -14 -1 -11 -14 5 -9 11 -4 13 28 12 37 -2 40 0 38 24 -2 20 -7 26 -29 27
-48 1 -60 10 -48 33 8 14 8 20 0 20 -6 0 -9 4 -6 8 3 5 -8 9 -24 10 -26 1 -29
-2 -21 -17 7 -12 6 -18 -2 -18 -8 0 -13 20 -15 51 -3 51 -14 76 -26 58 -3 -5
-16 -7 -29 -5 -20 4 -23 10 -22 36 3 40 -6 57 -16 31 -6 -16 -8 -16 -8 -2 -1
11 -8 16 -21 13 -11 -2 -20 1 -20 6 0 6 -4 7 -10 4 -5 -3 -10 -1 -10 4 0 6 5
11 12 11 6 0 8 3 4 8 -4 4 -13 7 -18 7 -6 0 -13 7 -15 15 -3 9 -1 11 4 5 13
-17 33 -16 33 1 0 10 -6 14 -15 10 -8 -3 -15 0 -15 6 0 7 -7 3 -16 -8 -8 -10
-13 -13 -9 -6 6 11 -7 17 -28 13 -4 -1 -3 8 3 19 8 14 8 26 0 40 -10 19 -12
19 -37 2 -15 -9 -24 -11 -19 -4 4 7 1 15 -9 18 -13 6 -14 8 -3 15 9 6 4 9 -17
10 l-30 1 30 8 c17 4 23 8 15 9 -13 1 -13 2 0 11 11 7 4 10 -27 10 -42 0 -43
1 -44 33 -1 17 -1 35 0 40 0 4 -6 7 -15 7 -9 0 -12 -5 -8 -12 5 -8 0 -7 -11 2
-17 13 -18 13 -11 0 7 -12 6 -12 -8 1 -10 9 -18 30 -18 47 -1 33 -25 52 -34
27 -9 -23 -36 10 -38 45 -1 32 -4 33 -50 30 -25 -2 -28 1 -23 19 3 12 1 23 -3
26 -5 3 -11 -3 -13 -12 -4 -17 -5 -17 -6 0 0 10 6 20 14 23 18 7 10 24 -11 24
-8 0 -12 -4 -9 -10 3 -5 1 -10 -4 -10 -6 0 -11 5 -11 10 0 6 -6 9 -12 8 -8 -2
-15 12 -18 32 -4 30 -9 35 -35 38 -37 4 -35 2 -37 48 -1 21 -3 34 -5 28 -5
-14 -63 -5 -64 10 -1 6 -3 18 -4 26 -1 8 -3 21 -4 28 0 6 -9 12 -20 12 -14 0
-17 -6 -14 -24 3 -13 1 -26 -5 -30 -5 -3 -7 5 -4 19 3 16 -1 27 -11 31 -11 4
-15 16 -12 41 3 34 3 34 -34 31 -36 -3 -36 -2 -36 35 0 38 -11 46 -34 25 -10
-9 -12 -9 -7 -1 3 6 2 14 -4 18 -5 3 -10 0 -10 -7 0 -8 -5 -7 -17 4 -13 14
-14 20 -4 31 18 22 -15 53 -36 35 -12 -10 -17 -9 -28 5 -12 16 -31 25 -22 9 3
-4 -7 -7 -23 -7 -24 -1 -27 3 -24 23 4 17 1 22 -8 16 -10 -6 -9 -3 1 9 11 14
11 18 -2 23 -9 3 -20 4 -24 1 -5 -3 -27 -2 -51 3 -24 4 -42 3 -42 -2 0 -5 -5
-6 -10 -3 -6 4 -8 10 -6 14 6 9 -24 8 -39 -1 -13 -7 -57 -4 -72 5 -6 4 -15 3
-18 -3 -5 -8 -11 -8 -19 -1 -7 6 -16 7 -20 3 -4 -4 -35 -8 -69 -9 -34 -1 -64
-2 -67 -3 -3 -1 -8 -2 -13 -1 -4 0 -7 -5 -7 -12 0 -8 -3 -8 -9 2 -8 12 -15 13
-34 4 -14 -7 -28 -8 -33 -3 -5 5 -15 5 -24 -1 -12 -9 -12 -10 3 -5 12 4 17 2
14 -6 -2 -7 -13 -12 -23 -10 -15 2 -16 1 -4 -7 9 -6 18 -6 26 0 7 5 21 12 33
14 20 4 19 -2 -7 -44 -1 -3 -20 -5 -42 -6 -27 -1 -45 -8 -54 -21 -10 -13 -14
-15 -13 -4 3 25 -18 27 -21 3 -2 -15 2 -23 12 -23 20 0 29 -17 15 -26 -8 -4
-9 -3 -5 4 4 7 1 12 -8 12 -9 0 -16 -4 -16 -9 0 -6 -15 -11 -32 -13 -18 -2
-33 -8 -33 -15 0 -6 -3 -14 -6 -17 -4 -4 -5 -20 -3 -36 4 -32 -11 -42 -19 -12
-4 13 -5 11 -6 -5 -1 -16 5 -23 17 -23 13 0 14 -2 3 -9 -7 -5 -11 -13 -7 -19
3 -6 1 -14 -5 -18 -8 -4 -9 -3 -5 4 4 7 2 12 -4 12 -6 0 -8 5 -5 10 3 6 1 10
-4 10 -6 0 -11 -7 -11 -15 0 -8 -6 -12 -13 -10 -9 4 -12 -12 -11 -62 0 -47 -4
-73 -14 -85 -11 -13 -12 -21 -3 -31 6 -8 8 -17 4 -20 -3 -4 -2 -7 4 -7 5 0 10
-7 10 -15 0 -8 -3 -15 -6 -15 -4 0 -7 -13 -7 -30 -1 -16 3 -30 8 -30 5 0 6 -5
2 -11 -4 -8 -9 -7 -15 2 -7 11 -9 11 -9 1 0 -7 7 -15 15 -18 11 -4 12 -11 5
-24 -5 -9 -6 -20 -3 -24 12 -12 11 -56 -1 -56 -6 0 -5 -4 3 -9 7 -5 11 -15 9
-22 -3 -8 -1 -26 3 -41 5 -19 4 -28 -3 -28 -6 0 -8 -3 -4 -7 4 -5 13 -1 19 8
8 10 20 13 37 8 22 -6 21 -9 -9 -13 -5 0 -13 -5 -18 -10 -5 -5 -3 -6 5 -2 6 4
12 2 12 -3 0 -6 7 -11 15 -11 9 0 12 -6 9 -15 -4 -8 -1 -15 5 -15 7 0 8 -8 2
-23 -12 -31 -1 -48 27 -42 12 2 29 -3 37 -12 13 -12 13 -18 3 -31 -11 -14 -10
-15 7 -8 16 6 18 5 8 -5 -7 -7 -13 -17 -13 -23 0 -7 4 -6 10 0 16 16 70 5 63
-12 -3 -8 4 -18 18 -24 23 -10 23 -10 2 -6 -18 3 -23 0 -23 -16 0 -17 3 -18
15 -8 11 9 15 9 15 1 0 -9 5 -9 21 0 13 7 19 7 15 1 -3 -6 -2 -13 3 -16 5 -3
7 -19 6 -34 -2 -27 0 -29 36 -28 23 1 41 -4 43 -11 3 -7 0 -13 -6 -13 -7 0 -6
-5 2 -15 9 -11 9 -15 1 -15 -27 0 0 -16 30 -18 17 -1 39 -7 48 -13 14 -9 14
-10 -2 -5 -13 4 -16 2 -10 -7 4 -6 8 -20 9 -29 3 -31 4 -32 18 -13 8 11 12 23
10 27 -3 4 2 5 12 1 15 -5 15 -7 0 -15 -9 -5 -16 -17 -15 -26 0 -10 3 -12 6
-4 8 21 33 13 33 -10 0 -19 2 -20 10 -8 5 8 10 10 10 4 0 -5 -5 -15 -11 -21
-16 -16 -4 -30 26 -30 13 0 22 4 19 9 -3 5 -13 7 -23 4 -14 -5 -14 -4 -1 7 8
7 21 19 29 27 12 13 12 12 3 -4 -7 -15 -6 -26 5 -43 8 -13 12 -23 8 -23 -4 0
-2 -7 5 -15 7 -8 16 -12 21 -9 5 3 9 0 9 -5 0 -14 -13 -14 -28 1 -9 9 -12 8
-12 -5 0 -20 40 -23 59 -4 10 10 12 9 9 -3 -2 -8 3 -14 10 -12 8 1 11 -2 6
-10 -11 -18 -14 -59 -4 -53 4 3 11 -1 13 -7 3 -8 6 -9 6 -2 1 7 12 9 27 6 19
-3 24 -9 21 -23 -3 -10 2 -20 10 -23 21 -8 25 -7 18 4 -3 6 -1 10 5 10 7 0 10
-6 7 -12 -2 -7 -14 -12 -25 -11 -14 2 -19 -2 -16 -10 2 -7 15 -13 29 -13 13 0
22 3 20 6 -2 4 2 7 10 7 8 0 13 -2 10 -5 -2 -2 4 -12 13 -21 10 -9 11 -11 3
-6 -12 8 -13 6 -8 -7 3 -10 2 -20 -4 -23 -5 -4 -6 -11 -3 -17 4 -6 10 -5 15 3
7 11 9 10 9 -4 0 -10 4 -16 10 -12 5 3 6 13 3 22 -5 12 0 10 15 -5 12 -12 28
-22 36 -22 20 0 25 -12 15 -35 -9 -18 -9 -18 -5 3 3 14 -1 22 -10 22 -8 0 -14
-10 -14 -26 0 -23 3 -25 37 -22 l38 3 -1 -40 c0 -40 0 -40 35 -40 31 0 36 -3
35 -22 -1 -13 3 -20 7 -17 13 8 11 -10 -2 -23 -9 -9 -4 -11 17 -8 43 4 54 -4
54 -41 0 -32 2 -34 35 -34 23 0 35 -4 33 -12 -1 -7 1 -25 5 -41 7 -24 10 -26
27 -17 27 14 45 -5 44 -46 -1 -28 1 -30 33 -27 34 2 34 2 37 -49 2 -26 14 -32
33 -17 11 9 14 10 9 2 -9 -15 6 -17 20 -3 11 11 12 -49 1 -66 -5 -8 16 -13 69
-17 5 0 15 -11 21 -24 6 -13 7 -21 2 -17 -5 3 -9 -3 -9 -13 0 -16 6 -18 40
-15 35 4 39 2 35 -17 -2 -12 -7 -26 -10 -31 -3 -6 -1 -10 5 -10 6 0 8 -5 5
-10 -7 -11 30 -8 41 3 4 4 12 7 18 7 6 0 4 -5 -4 -10 -10 -6 -11 -10 -2 -10
17 0 16 -66 -2 -73 -8 -3 -24 -3 -35 0 -19 5 -21 1 -21 -43 -1 -48 -1 -48 -15
-24 -11 20 -14 21 -15 7 0 -14 -5 -17 -20 -12 -20 6 -21 6 -24 -47 -1 -14 -9
-22 -24 -25 -17 -2 -21 1 -16 9 6 10 5 10 -8 1 -8 -7 -19 -9 -24 -5 -4 4 -2
-2 6 -12 9 -12 10 -17 3 -12 -9 5 -12 -1 -9 -23 3 -29 2 -30 -33 -28 -26 1
-35 -2 -33 -12 2 -8 -3 -18 -10 -23 -10 -8 -10 -11 0 -15 21 -8 13 -23 -14
-23 -17 0 -23 -4 -18 -12 4 -7 -2 -4 -14 6 l-22 19 0 -46 0 -47 -38 4 -37 4 2
-39 c2 -41 -2 -44 -53 -40 -17 2 -20 -3 -16 -34 4 -35 4 -35 -33 -35 -32 0
-37 -3 -32 -20 3 -13 1 -18 -6 -13 -6 4 -8 -1 -5 -14 4 -16 0 -22 -18 -26 -13
-2 -25 1 -28 7 -3 7 -5 6 -5 -2 -1 -7 -6 -10 -11 -7 -7 4 -9 -7 -6 -29 5 -37
4 -38 -44 -40 -21 -1 -25 -6 -28 -38 -3 -37 -4 -38 -43 -38 -35 0 -39 -2 -31
-18 17 -32 -9 -68 -38 -52 -9 5 -22 5 -31 -1 -13 -8 -6 -13 14 -10 5 1 5 -3 2
-9 -4 -6 -14 -9 -22 -5 -13 4 -14 3 -3 -10 10 -12 10 -15 -1 -15 -11 0 -11 -2
-1 -9 10 -6 10 -10 -3 -21 -12 -10 -18 -10 -30 0 -20 17 -40 3 -23 -18 11 -13
11 -14 -1 -7 -11 6 -13 3 -9 -13 6 -20 -14 -36 -38 -31 -26 4 -45 -2 -38 -13
4 -7 8 -22 9 -34 1 -22 -1 -23 -61 -24 -19 0 -21 -5 -17 -35 5 -36 5 -36 -44
-38 -25 -2 -39 -27 -22 -38 10 -6 10 -9 2 -9 -7 0 -10 -6 -7 -14 4 -11 -3 -14
-34 -12 -35 3 -39 1 -34 -17 3 -10 -1 -23 -9 -28 -11 -7 -11 -9 -1 -9 7 0 10
-5 6 -11 -3 -6 -15 -9 -25 -6 -11 3 -19 1 -19 -4 0 -4 -6 -6 -14 -3 -18 7 -19
-33 -2 -55 8 -11 8 -13 -1 -7 -7 4 -13 3 -13 -1 0 -5 -16 -7 -35 -5 -35 4 -35
4 -35 -37 0 -23 -4 -41 -10 -41 -5 0 -10 6 -10 13 0 8 -3 8 -9 -2 -5 -8 -16
-11 -24 -8 -13 5 -17 -3 -19 -35 -2 -24 -9 -43 -17 -46 -9 -3 -11 0 -6 9 6 11
5 11 -5 2 -7 -6 -19 -9 -27 -6 -10 4 -13 -1 -9 -21 3 -14 1 -26 -3 -26 -5 0
-7 -10 -7 -23 1 -12 -3 -28 -8 -36 -8 -11 -8 -13 0 -8 14 8 12 -89 -1 -101 -5
-4 -5 -1 -1 6 4 7 2 12 -5 12 -8 0 -8 5 2 18 11 14 10 13 -9 -2 -22 -19 -22
-19 -22 2 0 12 5 21 12 19 6 -1 13 7 15 18 2 16 1 16 -5 4 -4 -9 -14 -15 -23
-14 -12 2 -16 -4 -15 -21 0 -13 5 -24 9 -24 5 0 5 -5 2 -10 -4 -6 -10 -8 -14
-5 -5 2 -6 -7 -3 -20 2 -14 8 -25 13 -25 5 0 6 6 3 13 -2 7 2 21 10 32 9 11
16 15 16 8 0 -6 -5 -15 -10 -18 -6 -3 -10 -11 -10 -18 0 -8 3 -8 12 1 7 7 17
12 22 12 6 0 4 -5 -4 -10 -9 -6 -10 -10 -3 -10 6 0 11 -9 10 -20 -1 -11 -5
-20 -10 -20 -5 0 -6 8 -2 18 5 13 3 14 -6 5 -6 -6 -17 -9 -24 -7 -7 3 -16 1
-20 -5 -3 -6 1 -11 9 -11 9 0 16 -4 16 -10 0 -5 6 -7 14 -4 8 3 17 1 21 -5 4
-7 0 -8 -11 -4 -12 4 -15 3 -10 -5 4 -7 3 -12 -2 -12 -6 0 -12 7 -16 15 -3 8
-11 15 -18 15 -9 0 -8 -3 2 -10 13 -8 13 -10 1 -10 -11 0 -10 -4 5 -16 10 -8
13 -13 6 -9 -8 4 -12 -2 -12 -20 0 -15 4 -24 10 -20 6 3 7 -1 4 -10 -5 -11 -2
-14 10 -9 9 3 14 10 11 14 -3 5 -1 11 5 15 5 3 10 11 10 17 0 6 -6 6 -15 -2
-9 -7 -17 -11 -19 -9 -2 2 6 12 19 21 21 16 22 16 20 -5 -1 -12 -3 -22 -4 -22
-2 0 -4 -10 -7 -23 -2 -13 -1 -21 4 -18 9 5 13 -24 15 -104 1 -36 7 -60 17
-68 10 -9 11 -11 1 -6 -9 5 -12 3 -7 -4 4 -6 2 -22 -5 -34 -6 -13 -8 -20 -4
-16 4 4 18 3 31 -2 16 -6 24 -6 24 1 0 6 4 7 10 4 5 -3 10 -23 10 -44 0 -37 1
-38 35 -36 34 1 35 1 35 -37 0 -21 5 -38 11 -38 5 0 7 6 3 13 -6 9 -4 9 8 -1
8 -7 40 -13 71 -15 30 -1 53 -5 50 -10 -2 -4 -9 -5 -14 -2 -5 4 -9 1 -9 -4 0
-6 6 -11 13 -11 8 0 14 -7 14 -15 0 -13 -2 -13 -17 0 -9 8 -20 12 -24 8 -4 -4
-4 1 -1 12 6 16 5 17 -4 5 -9 -13 -11 -13 -11 0 0 13 -1 13 -10 0 -5 -9 -5
-19 0 -26 6 -6 8 -13 5 -15 -2 -3 10 -5 28 -6 95 -4 113 -8 127 -28 8 -11 15
-23 15 -27 0 -3 3 -9 7 -13 3 -4 5 0 4 9 -1 9 -8 22 -14 28 -18 18 -15 24 16
24 21 0 27 -5 28 -23 1 -15 -2 -20 -10 -16 -6 4 -5 -1 3 -10 17 -22 18 -21 18
5 1 40 3 48 12 48 6 0 9 -14 8 -32 l-2 -31 60 -2 c33 -1 54 0 47 2 -6 3 -9 9
-6 15 3 5 15 2 27 -9 18 -16 17 -14 -3 14 -13 18 -20 36 -15 40 4 5 10 2 12
-4 3 -7 9 -13 14 -13 6 0 8 3 6 8 -3 4 10 8 29 8 20 1 31 -3 27 -9 -4 -6 -1
-7 8 -1 18 11 19 11 74 13 45 1 45 1 45 36 0 33 2 35 33 34 17 0 46 2 62 4 17
3 33 5 37 6 4 1 6 15 4 31 -2 17 1 30 7 30 6 0 7 3 4 6 -3 4 -2 15 3 25 7 12
6 19 -2 21 -9 3 -9 6 0 12 7 4 12 2 12 -3 0 -6 4 -11 10 -11 5 0 9 5 7 11 -1
7 18 13 48 16 28 3 52 7 54 9 2 2 4 17 3 33 0 16 7 36 16 43 9 7 13 8 9 2 -4
-7 4 -10 21 -9 30 1 42 29 20 48 -7 7 -11 11 -9 9 2 -1 15 5 27 13 17 11 24
12 27 2 4 -8 6 -8 6 2 1 11 4 11 16 1 12 -10 14 -6 10 29 -3 26 -1 39 6 36 6
-4 8 3 5 18 -5 31 20 56 52 51 13 -2 21 0 18 5 -4 5 11 8 34 6 33 -3 39 -1 30
10 -8 9 -8 15 0 20 6 3 8 11 4 16 -3 5 -10 7 -15 4 -5 -4 -9 -1 -9 4 0 10 17
14 62 14 10 0 15 4 11 10 -4 6 0 8 10 4 11 -4 17 -1 17 9 0 9 -5 12 -13 8 -9
-6 -9 -5 0 7 10 13 10 16 -2 16 -8 0 -16 -4 -16 -9 -1 -4 -2 -12 -3 -17 0 -5
-4 -13 -8 -17 -4 -3 -6 3 -3 14 2 12 0 24 -5 27 -5 3 -7 -3 -5 -15 2 -11 0
-22 -4 -24 -4 -3 -8 7 -7 22 1 23 6 27 31 28 17 1 32 3 35 4 3 1 9 2 13 1 5
-1 6 3 2 9 -3 6 -8 21 -11 34 -3 20 0 24 21 24 14 0 27 -4 30 -8 2 -4 -7 -6
-20 -4 -14 1 -23 -2 -20 -6 3 -5 12 -7 19 -4 7 3 16 -1 19 -9 3 -7 -1 -14 -9
-14 -7 0 -10 5 -7 10 3 6 1 7 -6 3 -15 -10 -4 -26 18 -26 15 0 18 8 17 38 0
24 3 36 12 35 14 -3 16 13 2 22 -5 3 -10 12 -10 18 0 8 3 8 9 -2 5 -8 11 -9
15 -3 4 6 -1 15 -10 20 -13 7 -10 10 17 10 82 1 112 7 115 24 1 10 -3 15 -12
11 -10 -3 -8 5 5 33 10 20 16 45 14 54 -3 12 3 19 19 23 22 6 22 5 4 -8 -11
-8 -17 -17 -14 -20 11 -12 67 46 61 62 -4 11 -3 14 6 9 7 -5 10 -14 7 -22 -6
-16 10 -29 19 -15 3 6 12 8 20 4 9 -3 15 1 15 10 0 8 -7 18 -16 21 -13 5 -14
4 -6 -7 9 -10 8 -14 -3 -14 -8 0 -12 4 -9 8 2 4 0 10 -6 14 -6 4 -8 11 -5 16
3 5 -2 6 -11 2 -12 -4 -15 -3 -10 5 10 16 39 15 33 -1 -3 -7 3 -13 14 -13 14
0 16 3 6 15 -9 12 -9 13 1 7 6 -4 12 -3 12 2 0 4 15 8 33 7 28 -2 33 2 35 21
1 13 -2 25 -7 28 -5 3 -8 -4 -7 -17 1 -20 -7 -24 -42 -18 -4 0 -8 12 -8 25 0
19 4 23 20 20 11 -2 24 2 28 9 6 9 8 9 8 -1 0 -9 5 -10 18 -4 9 5 27 8 39 7
12 -1 20 2 17 7 -3 4 1 8 8 8 10 0 10 2 -1 9 -7 5 -9 11 -4 14 5 3 8 21 8 41
-1 32 0 34 19 24 21 -11 21 -11 2 11 -22 24 -15 41 9 21 11 -9 15 -9 15 -1 0
7 5 9 11 5 8 -4 7 -9 -2 -15 -8 -5 -10 -9 -6 -9 4 0 3 -9 -3 -19 -7 -14 -7
-22 2 -27 7 -4 8 -3 4 4 -4 7 -1 12 6 12 9 0 13 10 12 29 -1 17 4 38 11 48 8
10 10 24 5 33 -6 12 -2 15 20 15 26 1 27 -1 21 -34 -1 -2 -8 3 -18 10 -15 13
-15 12 -4 -8 10 -19 9 -22 -4 -17 -8 4 -15 2 -15 -3 0 -5 11 -10 26 -11 14 -1
23 2 19 8 -3 6 -2 10 3 10 5 0 9 8 9 18 0 44 4 62 13 62 5 0 9 -5 7 -12 -3
-15 41 -19 50 -5 3 6 1 7 -4 4 -6 -4 -13 0 -17 8 -6 18 10 30 18 13 3 -7 3 0
-1 16 -5 25 -4 28 16 21 13 -4 21 -2 21 6 0 9 3 9 14 0 9 -8 16 -8 20 -2 4 5
2 12 -4 16 -5 3 -10 11 -10 16 0 6 4 8 9 4 6 -3 8 4 6 15 -2 11 1 20 7 20 5 0
7 7 4 16 -3 8 -2 12 4 9 6 -3 10 -1 10 4 0 6 -6 11 -12 11 -10 0 -9 3 1 9 11
7 11 9 0 14 -8 2 0 4 16 3 17 -1 36 -5 43 -10 8 -5 11 -3 10 6 -2 7 3 11 12 9
8 -2 25 -3 38 -3 12 1 22 -3 22 -9 0 -5 -6 -7 -12 -3 -10 6 -10 5 -1 -8 7 -8
14 -27 15 -41 2 -20 5 -23 15 -15 9 7 18 7 30 -3 11 -10 14 -10 9 -2 -4 7 -2
13 3 13 6 0 11 -18 11 -39 0 -22 5 -43 12 -47 7 -5 9 -2 6 8 -5 12 -1 13 26 4
27 -8 32 -15 31 -35 -2 -38 5 -57 16 -39 6 8 9 9 9 1 0 -6 9 -9 20 -6 19 5 26
-11 21 -52 0 -6 9 -16 20 -23 12 -8 18 -9 14 -3 -4 7 3 10 19 9 28 -3 33 -16
14 -37 -10 -11 -10 -13 0 -7 8 5 12 -1 12 -21 0 -22 2 -25 10 -13 9 14 15 6
10 -15 -1 -5 7 -2 17 7 23 21 39 11 37 -22 -3 -43 6 -53 29 -33 12 11 17 12
12 4 -6 -11 -4 -13 8 -8 14 5 17 0 17 -33 l0 -40 42 0 c23 0 38 -3 35 -7 -4
-3 -2 -12 4 -20 6 -7 8 -13 3 -13 -5 0 -2 -5 6 -11 11 -8 9 -9 -10 -3 -22 6
-23 5 -12 -9 13 -15 35 -17 48 -4 4 4 12 7 18 7 6 0 4 -5 -4 -10 -13 -8 -12
-10 4 -10 11 0 16 -3 13 -7 -4 -3 -1 -13 6 -21 8 -11 9 -14 0 -9 -8 5 -11 0
-10 -13 1 -12 6 -19 14 -16 7 3 13 1 13 -5 0 -6 6 -6 19 0 23 13 36 -9 18 -29
-9 -10 -9 -11 1 -5 8 4 13 2 11 -6 -3 -26 1 -40 10 -35 5 4 12 0 14 -6 4 -10
6 -10 6 0 1 6 10 12 20 12 14 0 19 -6 16 -19 -7 -38 6 -61 34 -59 14 1 29 7
33 13 5 6 8 3 8 -7 0 -9 -6 -19 -12 -21 -10 -4 -10 -6 0 -6 6 -1 12 -9 12 -20
0 -10 8 -25 17 -32 15 -12 16 -12 10 6 -6 17 -5 18 5 4 7 -9 19 -14 26 -12 8
3 10 -1 5 -13 -4 -11 -3 -15 4 -11 14 9 12 -25 -2 -35 -5 -4 1 -8 15 -8 20 0
22 -2 10 -10 -10 -7 -11 -10 -2 -10 7 0 15 7 18 15 6 14 8 13 21 -2 8 -10 12
-12 8 -5 -3 6 -1 12 4 12 13 0 13 -2 1 -34 -6 -18 -6 -26 1 -26 6 0 7 -5 3
-12 -5 -7 -2 -9 8 -5 9 3 21 0 28 -6 10 -9 11 -9 6 1 -4 6 -4 12 1 12 11 0 40
-20 29 -20 -5 0 -1 -9 9 -20 18 -20 18 -21 1 -14 -14 5 -17 3 -14 -7 3 -8 19
-15 36 -15 55 -2 58 -4 38 -19 -16 -12 -17 -15 -4 -15 10 0 15 -6 12 -18 -6
-22 44 -48 52 -27 8 19 -5 37 -18 29 -7 -4 -8 -2 -4 5 13 20 35 -7 34 -41 -1
-16 5 -34 13 -39 11 -7 10 -9 -4 -9 -15 0 -16 -2 -5 -14 7 -8 15 -11 18 -7 9
13 42 22 34 9 -5 -7 -2 -9 8 -5 11 4 15 0 13 -11 -1 -9 -9 -16 -16 -14 -9 1
-7 -3 4 -12 10 -8 18 -17 18 -20 -3 -23 1 -25 15 -11 13 12 19 13 24 4 4 -6
12 -9 18 -5 14 8 2 -36 -12 -47 -7 -5 -3 -6 8 -3 13 5 17 2 12 -9 -3 -9 0 -15
10 -15 9 0 12 -5 8 -12 -4 -7 -3 -8 4 -4 7 4 12 14 12 22 0 8 5 12 10 9 6 -4
8 -10 5 -15 -3 -5 2 -15 10 -23 8 -9 13 -22 10 -30 -6 -13 1 -16 43 -18 31 -1
43 -9 36 -21 -11 -18 -12 -48 -2 -48 7 0 12 15 9 33 0 4 4 7 10 7 6 0 8 -9 4
-20 -5 -17 -2 -20 22 -20 16 0 35 -6 42 -12 11 -11 13 -11 7 0 -5 7 -1 12 9
12 10 0 13 -5 9 -13 -5 -7 -2 -7 10 2 15 13 20 12 38 -7 l21 -21 19 22 c17 21
18 21 11 2 -3 -11 -13 -29 -22 -40 -15 -18 -15 -19 2 -6 10 8 17 9 17 3 0 -7
27 -10 70 -9 39 1 70 5 70 9 0 4 5 8 11 8 5 0 7 -5 4 -10 -9 -15 2 -12 19 6 9
8 16 20 16 27 0 6 -6 3 -13 -8 -10 -13 -16 -15 -21 -6 -4 6 -13 8 -19 5 -7 -4
-4 2 5 12 20 21 69 27 80 10 5 -8 8 -7 8 2 0 7 5 10 10 7 6 -3 10 0 10 7 0 8
3 9 8 3 4 -5 17 -10 30 -11 20 -1 22 3 17 23 -4 16 -2 22 5 18 5 -3 10 -13 10
-21 0 -8 5 -14 11 -14 5 0 7 6 4 13 -4 6 0 4 8 -6 14 -17 15 -16 25 12 8 22 8
33 0 37 -7 5 -8 2 -3 -6 5 -9 4 -11 -4 -6 -9 6 -9 11 0 22 7 8 16 11 23 6 11
-8 72 -1 70 8 0 3 -6 16 -13 29 -12 22 -12 23 4 17 15 -5 16 -4 5 9 -15 18 1
20 18 3 9 -9 12 -9 12 1 0 7 6 11 13 8 6 -2 21 -1 32 4 18 7 18 8 2 8 -10 1
-16 5 -13 10 4 5 0 12 -6 14 -10 4 -10 6 -1 6 7 1 10 8 7 16 -4 10 0 15 11 15
10 0 14 -5 9 -12 -6 -11 -4 -11 7 0 7 6 20 12 30 12 12 0 15 6 11 25 -2 14 -9
22 -16 19 -6 -3 -3 1 7 9 10 8 17 19 16 23 -4 22 2 33 16 28 8 -4 15 -1 15 5
0 6 -3 10 -7 10 -19 -3 -33 2 -33 11 0 11 28 9 48 -4 7 -4 16 -5 19 -2 4 3 0
6 -8 6 -12 1 -11 3 1 13 17 14 22 59 6 54 -6 -2 -11 -10 -12 -18 -3 -39 -6
-43 -15 -20 -7 18 -12 21 -22 12 -10 -8 -14 -7 -14 4 0 8 4 12 9 9 10 -6 11 9
1 22 -5 5 0 1 10 -9 15 -18 22 -15 18 6 -1 5 3 6 9 2 5 -3 10 -1 10 5 0 6 4 9
8 6 5 -3 9 1 9 9 0 8 -4 15 -9 15 -4 0 -8 5 -8 11 0 5 4 8 8 5 5 -3 9 1 9 9 0
8 -3 15 -7 15 -4 0 -7 7 -7 15 0 11 4 12 14 3 11 -8 12 -7 7 6 -3 9 -11 16
-18 16 -6 0 -4 5 4 10 12 8 12 10 1 10 -11 0 -11 3 -1 15 10 12 10 15 -1 15
-10 0 -10 3 -3 8 12 8 12 40 0 60 -4 7 -2 12 5 12 8 0 8 4 -1 15 -7 8 -17 12
-22 9 -6 -4 -6 -9 -2 -13 16 -11 14 -30 -2 -24 -9 3 -19 0 -24 -6 -5 -10 -9
-9 -13 3 -4 9 -3 15 1 15 20 -3 32 2 27 11 -4 6 -11 7 -17 4 -6 -4 -8 -2 -4 4
3 5 3 12 -1 15 -5 2 -2 2 5 1 15 -4 16 13 0 18 -6 2 -12 14 -13 26 -1 11 2 19
7 16 4 -3 8 0 8 5 0 6 -5 11 -11 11 -5 0 -8 4 -4 9 3 5 -3 12 -12 14 -13 3
-11 5 7 7 24 2 24 3 -4 9 -21 4 -30 13 -33 31 -2 18 -1 21 6 10 5 -8 7 -18 5
-22 -3 -4 4 -8 14 -8 15 0 19 5 15 20 -3 11 -9 18 -13 15 -5 -3 -10 1 -13 7
-3 10 -7 10 -19 0 -13 -10 -17 -10 -22 4 -3 9 -1 24 6 32 9 11 9 14 1 9 -6 -4
-14 -3 -18 3 -3 5 -1 10 6 10 7 0 9 3 5 7 -4 5 -12 8 -16 8 -5 0 -16 9 -25 20
-16 20 -16 20 -6 -1 9 -19 8 -22 -12 -20 -19 1 -22 6 -18 38 l3 38 -39 0 c-38
0 -39 1 -39 37 1 22 -4 38 -13 41 -8 3 -11 0 -7 -6 3 -6 -1 -9 -11 -7 -10 2
-21 4 -25 4 -5 1 -8 17 -8 36 0 19 -5 35 -11 35 -5 0 -7 5 -3 12 5 7 3 8 -7 2
-22 -13 -47 -15 -55 -3 -4 6 0 15 7 20 10 6 11 9 2 9 -7 0 -12 3 -12 8 5 33
-33 46 -60 20 -7 -7 -12 -8 -11 -3 2 6 2 30 1 55 -1 31 -4 41 -12 33 -5 -5
-21 -8 -35 -5 -20 4 -24 10 -24 38 0 31 -8 39 -34 35 -20 -4 -42 11 -42 28 0
11 4 18 7 15 4 -2 11 1 15 7 4 8 3 9 -4 5 -6 -4 -16 4 -23 16 -12 22 -12 22
-20 3 -4 -11 -8 -14 -8 -6 -1 7 -7 11 -15 8 -8 -3 -17 1 -20 10 -4 10 -2 13 7
10 8 -3 14 1 14 9 0 8 -6 13 -14 10 -16 -6 -17 6 -3 20 7 7 -4 10 -35 10 -45
-1 -46 0 -44 29 4 38 -9 64 -22 44 -5 -9 -9 -10 -9 -2 0 6 -8 9 -18 6 -11 -2
-19 1 -20 9 0 7 -2 30 -3 51 -2 37 -12 47 -25 25 -5 -7 -2 -8 7 -3 8 5 11 4 6
0 -4 -5 -20 -9 -36 -10 -23 -1 -27 2 -23 17 2 10 8 15 13 12 5 -3 6 -11 3 -17
-4 -7 1 -4 11 5 15 14 16 20 5 32 -16 20 -2 21 20 1 15 -13 17 -13 17 0 0 8
-3 13 -5 10 -3 -3 -11 0 -18 6 -15 12 -37 3 -29 -12 4 -5 -1 -9 -10 -9 -9 0
-13 5 -10 10 4 6 1 17 -5 25 -10 12 -10 15 0 15 7 0 2 9 -11 21 -17 14 -19 19
-7 15 10 -3 20 -2 22 3 3 4 -9 8 -27 8 -56 1 -67 3 -67 14 0 5 6 7 13 3 9 -6
9 -4 0 7 -19 20 -16 33 5 18 15 -12 16 -12 5 2 -7 9 -10 19 -7 22 4 4 -2 5
-12 3 -26 -5 -59 15 -61 37 0 9 -1 21 -2 25 -1 10 -41 13 -42 4 0 -4 -2 -14
-4 -23 -1 -9 3 -16 10 -16 7 0 12 8 10 18 -2 11 1 16 9 13 6 -2 12 -15 12 -27
0 -20 -4 -22 -29 -19 -26 4 -28 7 -24 37 4 26 1 34 -14 38 -11 3 -19 0 -19 -6
0 -6 -2 -8 -5 -5 -3 3 -3 13 1 22 4 11 10 14 18 7 9 -8 12 -3 12 18 0 16 -5
28 -12 28 -7 0 -13 -3 -12 -6 2 -19 -5 -26 -26 -27 -17 -1 -23 3 -19 11 2 8
11 11 19 8 8 -3 14 0 14 6 0 6 -3 10 -7 10 -24 -4 -42 3 -47 17 -4 12 -2 15 9
10 8 -3 15 -1 15 4 0 6 -9 10 -20 10 -27 0 -25 18 3 23 15 3 12 4 -8 4 -22 -1
-31 -6 -31 -18 0 -10 4 -15 8 -13 13 8 9 -9 -7 -30 -13 -17 -14 -16 -13 10 1
51 -2 62 -18 68 -8 3 -12 2 -9 -4 10 -16 -45 -7 -58 9 -10 12 -9 13 2 7 9 -6
12 -5 9 5 -3 8 2 23 11 34 15 18 15 19 -1 6 -18 -13 -22 -7 -17 26 0 3 -6 10
-14 15 -16 9 -50 0 -43 -11 3 -4 0 -13 -6 -21 -8 -12 -9 -12 -4 3 3 10 0 17
-7 17 -8 0 -8 3 -2 8 12 8 13 41 3 58 -4 6 -6 20 -4 31 3 14 -1 19 -15 18 -10
-1 -22 -4 -25 -8 -11 -11 -24 -8 -22 4 2 6 -3 14 -11 17 -10 3 -11 0 -5 -9 6
-11 5 -12 -7 -3 -8 6 -25 10 -39 8 -17 -3 -21 -1 -12 5 8 4 14 12 15 17 1 5 5
8 9 7 3 -1 9 4 12 12 3 9 0 12 -8 9 -8 -3 -17 0 -22 7 -5 9 -2 10 9 6 9 -3 19
-2 22 3 3 5 12 7 20 3 10 -3 15 1 15 12 0 10 5 14 13 9 6 -4 1 5 -13 20 -18
20 -20 25 -7 20 9 -3 17 -2 17 3 0 5 10 9 23 8 12 -1 28 3 36 9 12 9 13 8 6
-4 -7 -13 -6 -13 6 -1 10 10 11 15 2 18 -6 2 -9 15 -7 29 3 18 1 23 -7 18 -8
-4 -9 -3 -5 5 11 18 36 -6 29 -27 -3 -9 -3 -14 1 -10 4 3 9 14 11 25 2 10 4
20 5 23 0 3 7 -6 14 -19 11 -20 14 -21 19 -7 5 11 3 15 -5 10 -7 -4 -8 -3 -4
4 4 7 14 12 22 12 8 0 14 5 14 11 0 5 6 7 13 3 8 -5 8 -2 -2 9 -7 9 -20 17
-28 17 -8 0 -11 5 -8 11 4 6 21 9 38 7 24 -2 33 1 35 16 3 13 0 16 -9 11 -8
-5 -10 -4 -5 3 9 15 25 15 46 -1 9 -6 6 -2 -7 10 -26 25 -30 38 -8 30 8 -4 17
-2 20 3 3 5 13 6 23 3 9 -3 14 -2 9 2 -4 5 1 17 10 28 10 11 13 17 7 14 -7 -4
-11 3 -11 18 0 24 0 24 14 8 14 -17 14 -17 9 0 -4 13 -2 16 7 10 33 -20 41
-11 39 45 -1 27 23 29 52 5 20 -17 20 -17 7 0 -11 14 -11 17 0 18 8 1 18 1 23
0 5 -1 5 4 -1 11 -5 7 -7 23 -4 35 6 21 7 21 28 3 12 -9 20 -20 17 -23 -3 -3
-1 -8 4 -11 6 -3 9 1 8 10 -1 9 -10 21 -19 26 -10 5 -15 14 -11 20 4 7 9 6 14
-3 7 -10 11 -10 24 0 8 7 19 10 23 8 5 -3 9 3 10 13 1 11 -3 23 -9 26 -7 5 -9
2 -5 -9 3 -8 0 -18 -7 -20 -10 -4 -13 3 -12 24 0 16 4 30 8 30 9 2 37 5 66 9
10 1 12 4 5 7 -10 3 -10 7 0 18 7 7 15 11 20 8 4 -2 7 1 7 6 0 14 -13 14 -26
1 -6 -6 -10 -4 -10 8 0 12 9 19 23 20 13 1 23 -3 23 -9 0 -6 8 -3 17 7 18 18
24 55 10 65 -5 3 1 9 12 12 14 3 19 1 14 -6 -4 -7 1 -6 10 2 14 11 17 11 17 0
0 -30 19 8 21 42 2 26 7 35 16 32 7 -3 13 1 13 8 0 11 2 11 8 1 7 -9 15 -10
35 -3 15 6 27 13 27 15 0 3 -6 3 -14 0 -7 -3 -16 2 -20 12 -4 11 -2 15 8 11
10 -4 13 -1 9 8 -3 8 -10 12 -16 8 -6 -3 -7 -1 -3 5 4 7 24 10 47 8 21 -2 42
1 46 7 3 6 1 7 -5 3 -7 -4 -12 -3 -12 3 0 5 5 13 10 16 8 5 7 11 -1 21 -6 8
-10 15 -8 15 5 2 48 9 67 11 6 1 12 12 12 25 0 16 -4 22 -12 17 -7 -4 -5 2 5
12 19 20 58 25 69 9 4 -5 8 9 8 33 0 23 3 43 8 43 42 8 53 5 47 -10 -5 -13 -4
-13 6 -4 7 7 12 30 11 53 -2 42 5 46 63 40 17 -2 18 0 5 16 -9 11 -10 15 -2
10 15 -9 16 6 1 21 -8 8 -7 13 1 18 7 4 16 1 21 -6 6 -10 9 -11 9 -1 0 6 11
12 25 12 29 0 32 8 8 26 -17 13 -17 14 -1 8 13 -4 16 -1 13 15 -2 11 0 23 6
26 5 4 9 1 9 -6 0 -8 5 -7 17 2 13 11 17 11 20 2 8 -21 22 -14 18 8 -3 16 0
19 13 15 15 -5 15 -5 2 6 -19 16 -14 48 7 48 12 0 13 -3 4 -13 -8 -10 -7 -14
4 -14 8 0 12 4 9 9 -3 4 3 11 13 15 24 9 34 25 23 38 -16 19 7 39 43 37 33 -2
34 -2 31 32 -3 23 0 36 11 40 8 3 15 0 15 -6 0 -7 7 -3 16 8 8 10 13 14 10 7
-4 -6 -1 -15 5 -19 8 -4 9 -3 5 4 -4 7 -3 12 2 12 4 0 8 13 8 30 0 23 -3 27
-12 19 -7 -6 -16 -18 -19 -28 -3 -9 -15 -18 -27 -18 -13 -1 -18 1 -13 5 6 4
11 14 11 22 0 8 4 23 9 33 6 15 9 16 19 3 10 -13 13 -13 30 -1 11 8 15 15 8
15 -6 0 -9 7 -5 16 3 9 0 20 -8 25 -10 6 -10 9 -1 9 7 0 12 15 12 40 0 22 4
40 8 40 5 0 7 -16 6 -35 -2 -19 1 -35 7 -35 6 0 8 4 5 9 -3 5 1 12 10 15 24 9
28 7 14 -9 -7 -9 -8 -15 -2 -15 17 0 23 30 7 36 -8 4 -12 10 -9 15 3 5 11 6
17 2 7 -4 6 0 -2 10 -11 13 -11 17 -1 17 8 0 10 3 7 6 -4 4 -13 2 -20 -5 -15
-12 -47 -5 -47 9 0 5 6 11 13 13 10 4 10 6 0 6 -7 1 -13 9 -13 18 0 15 1 15
13 -2 9 -11 19 -15 27 -10 9 5 11 4 6 -3 -4 -7 -1 -12 8 -12 8 0 18 5 22 12 4
6 3 8 -3 5 -6 -4 -14 0 -17 9 -5 13 -9 14 -21 4 -8 -7 -15 -8 -15 -4 0 5 9 15
21 22 12 8 18 9 14 3 -3 -6 -2 -11 2 -11 5 0 9 36 9 79 -1 44 -4 77 -9 74 -4
-2 -4 -10 -1 -16 5 -9 3 -9 -6 0 -11 10 -11 15 0 28 8 10 9 15 1 15 -6 0 -11
5 -11 11 0 6 7 9 14 6 10 -4 13 -1 10 8 -5 11 -10 12 -24 3 -10 -7 -17 -15
-14 -19 2 -4 0 -10 -6 -14 -5 -3 -10 0 -10 7 0 7 -7 25 -14 41 -9 16 -11 27
-4 27 5 0 8 7 4 15 -3 8 -1 15 4 15 6 0 10 4 10 9 0 5 -8 8 -17 7 -10 0 -17 5
-15 12 1 6 -2 12 -8 12 -5 0 -10 -6 -10 -14 0 -8 -4 -18 -10 -21 -6 -4 -7 1
-3 11 4 11 3 15 -5 10 -6 -3 -14 -2 -17 4 -4 6 -3 10 2 9 20 -3 34 2 28 11 -4
6 -10 8 -15 5 -5 -3 -12 0 -16 6 -4 8 -3 9 4 5 7 -4 12 -1 12 6 0 9 3 9 10 -2
9 -13 10 -13 11 0 0 9 4 7 11 -7 11 -23 28 -31 28 -13 0 6 -4 10 -10 10 -5 0
-10 5 -10 11 0 5 6 7 13 4 6 -4 3 1 -7 9 -11 9 -22 13 -25 8 -3 -4 -15 -9 -26
-10 -11 -2 -17 -1 -13 3 4 4 3 17 -3 28 -9 15 -8 18 2 12 9 -6 11 -3 6 9 -4
10 -7 20 -7 22 0 2 -12 4 -26 4 -14 0 -23 -4 -19 -10 3 -5 2 -10 -3 -10 -14 0
-25 31 -23 62 2 27 -20 51 -27 29 -3 -9 -8 -9 -20 1 -14 11 -15 10 -8 -7 7
-18 6 -18 -13 2 -12 13 -28 20 -36 17 -18 -7 -20 11 -3 22 6 4 8 3 4 -4 -3 -6
1 -9 11 -8 19 3 31 26 13 26 -9 0 -9 5 1 18 10 13 8 12 -10 -3 -22 -18 -24
-18 -18 -2 6 15 4 16 -13 7 -22 -12 -33 -13 -26 -2 2 4 -21 9 -52 10 -59 3
-102 8 -137 15 -11 2 -14 2 -7 0 6 -3 12 -9 12 -13 0 -6 -11 -6 -25 0 -14 5
-25 7 -25 4 0 -2 -10 0 -21 7 -12 6 -19 7 -15 1 3 -5 -5 -9 -18 -9 -17 0 -23
4 -19 13 3 8 -1 14 -8 14 -7 0 -9 -3 -6 -7z m349 -65 c-6 -6 -16 -7 -22 -3 -9
6 -9 9 1 16 17 10 34 0 21 -13z m-482 -18 c8 -5 11 -10 5 -10 -5 0 -17 5 -25
10 -8 5 -10 10 -5 10 6 0 17 -5 25 -10z m-3819 -53 c-10 -9 -11 -8 -5 6 3 10
9 15 12 12 3 -3 0 -11 -7 -18z m729 13 c0 -5 -4 -10 -10 -10 -5 0 -10 5 -10
10 0 6 5 10 10 10 6 0 10 -4 10 -10z m-35 -18 c-3 -3 -11 0 -18 7 -9 10 -8 11
6 5 10 -3 15 -9 12 -12z m3694 -26 c-3 -3 -11 5 -18 17 -13 21 -12 21 5 5 10
-10 16 -20 13 -22z m-3598 -39 c-10 -9 -11 -8 -5 6 3 10 9 15 12 12 3 -3 0
-11 -7 -18z m-7 -26 c-5 -6 -34 20 -34 30 0 5 8 1 18 -8 10 -10 17 -20 16 -22z
m-864 14 c-14 -17 -30 -20 -30 -4 0 5 4 8 9 4 5 -3 12 -1 16 5 3 5 9 10 12 10
3 0 0 -7 -7 -15z m30 -5 c0 -5 -5 -10 -11 -10 -5 0 -7 5 -4 10 3 6 8 10 11 10
2 0 4 -4 4 -10z m925 -40 c3 -6 -1 -7 -9 -4 -18 7 -21 14 -7 14 6 0 13 -4 16
-10z m-22 -30 c-3 -12 -8 -19 -11 -16 -5 6 5 36 12 36 2 0 2 -9 -1 -20z m82
-90 c-3 -5 -12 -10 -18 -10 -7 0 -6 4 3 10 19 12 23 12 15 0z m3664 -73 c-15
-11 -15 -42 0 -33 11 7 36 -12 28 -21 -5 -4 -13 -1 -18 7 -8 12 -9 11 -7 -5 2
-12 -2 -19 -9 -17 -21 4 -15 -16 6 -23 11 -3 22 -13 25 -21 4 -11 -1 -10 -20
5 -15 11 -31 18 -36 15 -6 -4 -6 2 1 13 6 11 7 24 3 28 -4 5 -1 5 7 0 9 -5 12
-3 9 6 -3 8 -11 13 -17 11 -9 -2 -9 3 -2 17 6 11 8 21 3 24 -4 2 -2 2 5 1 7
-2 15 1 19 7 3 6 9 7 12 4 4 -4 0 -12 -9 -18z m-4789 -21 c0 -3 -4 -8 -10 -11
-5 -3 -10 -1 -10 4 0 6 5 11 10 11 6 0 10 -2 10 -4z m1280 -51 c0 -11 -14 7
-31 40 -7 13 -3 12 10 -5 11 -14 21 -29 21 -35z m-25 5 c3 -5 1 -10 -4 -10 -6
0 -11 5 -11 10 0 6 2 10 4 10 3 0 8 -4 11 -10z m58 -61 c-8 -8 -13 -7 -18 2
-6 8 -4 10 5 4 10 -6 12 -4 6 11 -6 15 -5 17 5 7 9 -10 10 -16 2 -24z m3477 6
c7 -8 10 -15 7 -15 -3 0 -14 -3 -24 -6 -15 -5 -16 -4 -3 5 13 10 13 12 0 21
-8 5 -10 10 -4 10 6 0 17 -7 24 -15z m-3390 -56 c0 -5 5 -7 12 -3 7 4 8 3 4
-4 -4 -6 -13 -9 -21 -5 -17 6 -20 23 -5 23 6 0 10 -5 10 -11z m1986 -14 c-2
-29 -11 -39 -26 -30 -9 6 -9 10 1 16 8 4 15 13 15 19 4 30 11 27 10 -5z
m-1961 -15 c-3 -5 -12 -10 -18 -10 -7 0 -6 4 3 10 19 12 23 12 15 0z m3376
-33 c-6 -8 -8 -17 -4 -20 3 -4 1 -7 -5 -7 -16 0 -15 27 1 33 19 8 20 8 8 -6z
m-3327 -21 c19 7 27 -9 14 -26 -8 -12 -9 -11 -4 4 4 13 2 17 -8 13 -15 -6 -36
11 -36 28 0 5 5 2 11 -7 5 -9 16 -15 23 -12z m65 -78 c4 6 11 5 19 -4 11 -12
10 -14 -5 -11 -26 4 -43 16 -43 30 0 7 5 4 11 -7 7 -11 14 -14 18 -8z m61 -88
c0 -5 -2 -10 -4 -10 -3 0 -8 5 -11 10 -3 6 -1 10 4 10 6 0 11 -4 11 -10z
m-1480 -41 c12 -8 10 -9 -9 -4 -13 4 -21 3 -18 -2 3 -5 1 -15 -4 -23 -7 -11
-8 -8 -5 10 3 14 5 26 5 28 2 5 17 1 31 -9z m1595 1 c3 -5 1 -10 -4 -10 -6 0
-11 5 -11 10 0 6 2 10 4 10 3 0 8 -4 11 -10z m-25 -15 c0 -7 -30 -13 -34 -7
-3 4 4 9 15 9 10 1 19 0 19 -2z m-1492 -70 c-3 -3 -9 2 -12 12 -6 14 -5 15 5
6 7 -7 10 -15 7 -18z m-18 -5 c6 -11 8 -20 6 -20 -3 0 -10 9 -16 20 -6 11 -8
20 -6 20 3 0 10 -9 16 -20z m1571 -5 c5 4 6 -1 2 -10 -5 -13 -7 -14 -14 -3 -5
7 -8 18 -8 23 0 6 3 4 6 -3 2 -6 9 -10 14 -7z m-1491 -45 c0 -5 -4 -10 -10
-10 -5 0 -10 5 -10 10 0 6 5 10 10 10 6 0 10 -4 10 -10z m1560 -40 c0 -5 -4
-10 -10 -10 -5 0 -10 5 -10 10 0 6 5 10 10 10 6 0 10 -4 10 -10z m30 0 c0 -5
-2 -10 -4 -10 -3 0 -8 5 -11 10 -3 6 -1 10 4 10 6 0 11 -4 11 -10z m-1531 -52
c-12 -23 -21 -24 -12 -1 5 12 3 14 -7 8 -8 -5 -11 -4 -7 2 3 5 13 10 21 10 11
0 13 -5 5 -19z m1608 0 c-3 -8 -6 -5 -6 6 -1 11 2 17 5 13 3 -3 4 -12 1 -19z
m-36 -31 c-10 -9 -11 -8 -5 6 3 10 9 15 12 12 3 -3 0 -11 -7 -18z m-1497 -47
c-6 -6 -10 -3 -10 10 0 13 4 16 10 10 7 -7 7 -13 0 -20z m1599 -5 c-7 -21 -12
-19 -10 4 0 11 5 18 9 15 4 -3 5 -11 1 -19z m-1573 -5 c0 -5 -5 -10 -11 -10
-5 0 -7 5 -4 10 3 6 8 10 11 10 2 0 4 -4 4 -10z m75 -40 c3 -5 1 -10 -4 -10
-6 0 -11 5 -11 10 0 6 2 10 4 10 3 0 8 -4 11 -10z m1585 -16 c0 -2 -9 0 -20 6
-11 6 -20 13 -20 16 0 2 9 0 20 -6 11 -6 20 -13 20 -16z m40 -75 c0 -6 -4 -7
-10 -4 -5 3 -10 11 -10 16 0 6 5 7 10 4 6 -3 10 -11 10 -16z m27 -11 c-3 -8
-6 -5 -6 6 -1 11 2 17 5 13 3 -3 4 -12 1 -19z m578 2 c-3 -5 -12 -10 -18 -10
-7 0 -6 4 3 10 19 12 23 12 15 0z m-509 -61 c0 -10 -3 -16 -7 -13 -4 2 -9 -3
-13 -11 -8 -22 -34 -7 -32 19 1 17 7 22 26 22 18 0 26 -5 26 -17z m-1576 7 c0
-3 -4 -8 -10 -11 -5 -3 -10 -1 -10 4 0 6 5 11 10 11 6 0 10 -2 10 -4z m60 -66
c0 -5 -4 -10 -10 -10 -5 0 -10 5 -10 10 0 6 5 10 10 10 6 0 10 -4 10 -10z
m3360 -20 c0 -5 -2 -10 -4 -10 -3 0 -8 5 -11 10 -3 6 -1 10 4 10 6 0 11 -4 11
-10z m-1800 -4 c0 -2 -7 -9 -15 -16 -13 -11 -14 -10 -9 4 5 14 24 23 24 12z
m1665 -116 c-3 -5 -12 -10 -18 -10 -7 0 -6 4 3 10 19 12 23 12 15 0z m-3069
-33 c1 -9 -2 -15 -7 -11 -5 3 -7 9 -4 14 3 4 0 11 -5 13 -6 3 -5 4 1 3 7 -1
13 -10 15 -19z m68 -65 c3 -5 -1 -9 -9 -9 -8 0 -12 4 -9 9 3 4 7 8 9 8 2 0 6
-4 9 -8z m61 -56 c7 3 15 1 19 -4 3 -5 -5 -8 -17 -7 -12 1 -22 8 -23 16 -1 8
1 9 3 2 2 -7 10 -10 18 -7z m-10 -34 c-3 -3 -11 0 -18 7 -9 10 -8 11 6 5 10
-3 15 -9 12 -12z m80 -31 c-9 -8 -36 -10 -30 -2 2 4 11 8 20 8 8 0 13 -3 10
-6z m-14 -44 c-10 -9 -11 -8 -5 6 3 10 9 15 12 12 3 -3 0 -11 -7 -18z m82 -43
c-10 -7 -22 -13 -28 -13 -5 0 -2 4 8 10 9 6 15 14 12 20 -3 5 1 6 10 3 14 -6
14 -8 -2 -20z m19 -11 c-6 -2 -9 -10 -6 -15 4 -7 2 -8 -5 -4 -13 9 -5 26 12
25 9 0 8 -2 -1 -6z m71 -48 c-3 -9 -8 -14 -10 -11 -3 3 -2 9 2 15 9 16 15 13
8 -4z m-28 -43 c-3 -3 -11 0 -18 7 -9 10 -8 11 6 5 10 -3 15 -9 12 -12z m82
-64 c-3 -8 -6 -5 -6 6 -1 11 2 17 5 13 3 -3 4 -12 1 -19z m88 -38 c3 -6 -1 -7
-9 -4 -18 7 -21 14 -7 14 6 0 13 -4 16 -10z m-35 -10 c0 -5 -2 -10 -4 -10 -3
0 -8 5 -11 10 -3 6 -1 10 4 10 6 0 11 -4 11 -10z m94 -62 c-2 -3 -13 -6 -24
-5 -24 2 -18 13 9 13 11 0 18 -4 15 -8z m26 -12 c0 -3 -4 -8 -10 -11 -5 -3
-10 -1 -10 4 0 6 5 11 10 11 6 0 10 -2 10 -4z m-53 -28 c-3 -8 -6 -5 -6 6 -1
11 2 17 5 13 3 -3 4 -12 1 -19z m2018 12 c-3 -5 -12 -7 -20 -3 -21 7 -19 13 6
13 11 0 18 -4 14 -10z m-1905 -76 c0 -1 -6 -6 -12 -10 -7 -4 -10 -4 -6 1 4 4
-3 16 -15 27 l-22 19 28 -17 c15 -9 27 -18 27 -20z m5 26 c3 -6 -1 -7 -9 -4
-18 7 -21 14 -7 14 6 0 13 -4 16 -10z m30 -90 c-3 -5 -2 -10 4 -10 5 0 12 6
14 13 4 9 6 9 6 0 1 -15 -16 -26 -29 -18 -10 6 -5 25 6 25 3 0 2 -4 -1 -10z
m1759 -141 c-3 -5 -10 -6 -16 -3 -7 4 -8 2 -4 -4 4 -7 2 -12 -3 -12 -12 0 -15
23 -5 33 9 9 35 -4 28 -14z m-14 -24 c10 3 21 1 25 -5 3 -6 -3 -10 -15 -10
-12 0 -18 -4 -15 -10 3 -5 1 -10 -4 -10 -6 0 -11 7 -11 16 0 8 -4 12 -10 9 -6
-3 -10 4 -10 17 1 21 2 21 11 5 7 -11 17 -16 29 -12z m84 -71 c4 -9 4 -19 1
-22 -3 -3 -5 1 -5 9 0 11 -2 11 -10 -1 -8 -12 -10 -11 -10 8 0 26 15 29 24 6z
m136 -154 c0 -5 -5 -10 -11 -10 -5 0 -7 5 -4 10 3 6 8 10 11 10 2 0 4 -4 4
-10z m60 -60 c0 -5 -5 -10 -11 -10 -5 0 -7 -6 -3 -12 5 -10 4 -10 -6 -1 -7 6
-9 16 -6 22 9 14 26 14 26 1z m-2383 -85 c0 -8 -4 -12 -9 -9 -5 3 -6 10 -3 15
9 13 12 11 12 -6z m2535 -30 c8 8 3 -30 -6 -44 -7 -11 -10 -11 -18 3 -5 9 -11
25 -13 36 -3 17 -1 18 14 10 10 -5 20 -7 23 -5z m70 -83 c19 -19 19 -43 0 -40
-9 1 -24 -2 -32 -7 -13 -8 -13 -7 -1 9 9 10 11 20 5 24 -5 4 -10 12 -11 19 -3
14 23 11 39 -5z m-2808 -80 c3 -5 -1 -9 -9 -9 -8 0 -12 4 -9 9 3 4 7 8 9 8 2
0 6 -4 9 -8z m1523 -229 c0 -9 -4 -10 -12 -3 -7 5 -15 7 -18 3 -4 -3 -7 -1 -7
5 0 6 8 10 18 9 10 0 19 -7 19 -14z m-233 -34 c4 6 12 9 17 5 6 -4 6 -11 -2
-20 -9 -11 -8 -18 2 -31 13 -16 12 -17 -3 -5 -11 9 -18 10 -23 2 -10 -17 -25
-1 -21 23 3 12 5 27 5 32 1 6 5 4 10 -4 6 -9 11 -10 15 -2z m313 -46 c0 -10
-4 -10 -16 -1 -9 7 -18 13 -20 15 -2 1 5 1 16 0 11 0 20 -7 20 -14z m-367 -34
c0 -4 -4 -10 -10 -14 -5 -3 -7 -12 -3 -20 3 -8 0 -15 -7 -15 -6 0 -8 5 -5 10
3 6 -1 13 -9 16 -25 10 -19 32 9 32 14 0 25 -4 25 -9z m481 -92 c-10 -9 -11
-8 -5 6 3 10 9 15 12 12 3 -3 0 -11 -7 -18z m104 -56 c3 -5 2 -12 -3 -15 -5
-3 -9 1 -9 9 0 17 3 19 12 6z m-824 -81 c6 0 8 4 5 9 -4 5 0 8 6 7 7 -1 14 -6
15 -11 0 -6 -3 -9 -8 -7 -5 1 -9 -2 -9 -8 0 -5 5 -10 12 -10 20 0 1 -11 -28
-16 -16 -2 -24 -1 -19 3 14 11 17 33 4 33 -5 0 -7 5 -3 12 6 9 9 9 12 0 2 -7
8 -12 13 -12z m946 -97 c0 -9 -4 -10 -14 -2 -7 6 -13 12 -13 14 0 1 6 2 13 2
8 0 14 -6 14 -14z m98 -32 c3 -5 2 -12 -3 -15 -5 -3 -9 1 -9 9 0 17 3 19 12 6z
m-1311 -150 c5 -1 3 -7 -3 -15 -10 -11 -8 -17 6 -25 16 -9 15 -10 -7 -7 -14 3
-31 5 -37 5 -7 1 -13 5 -13 10 0 5 7 8 16 7 9 0 19 6 21 14 4 12 2 12 -5 2 -7
-11 -11 -10 -20 1 -9 11 -7 13 11 11 12 -1 26 -3 31 -3z m-1592 -20 c-11 -7
-11 -9 2 -14 8 -3 17 -1 19 6 3 7 4 2 4 -10 -1 -15 -5 -19 -11 -13 -13 13 -29
13 -21 0 3 -5 1 -10 -5 -10 -7 0 -10 7 -6 15 3 8 0 15 -7 15 -8 0 -6 4 3 10 8
5 20 10 25 10 6 0 4 -4 -3 -9z m3083 -80 c3 -5 2 -12 -3 -15 -5 -3 -9 1 -9 9
0 17 3 19 12 6z m105 -67 c0 -8 -19 -13 -24 -6 -3 5 1 9 9 9 8 0 15 -2 15 -3z
m1436 -66 c5 -7 3 -8 -6 -3 -9 6 -10 2 -5 -16 7 -23 7 -23 -8 -4 -11 15 -12
22 -4 27 15 10 15 10 23 -4z m-3346 -78 c5 0 7 8 4 18 -5 16 -5 16 6 -1 6 -10
16 -14 23 -10 9 5 8 2 0 -9 -7 -8 -10 -19 -6 -24 4 -5 1 -3 -7 4 -18 15 -34
16 -24 0 4 -7 3 -8 -5 -4 -6 4 -9 12 -6 17 4 5 2 9 -4 9 -6 0 -7 8 -3 18 6 16
7 16 10 0 2 -10 7 -18 12 -18z m3337 -106 c-3 -3 -12 -4 -19 -1 -8 3 -5 6 6 6
11 1 17 -2 13 -5z m-3467 -19 c5 3 12 0 16 -6 4 -8 3 -9 -4 -5 -7 4 -12 2 -12
-3 0 -6 5 -11 12 -11 15 0 4 -11 -14 -14 -7 -1 -18 -5 -24 -9 -7 -4 -11 2 -10
16 1 24 19 50 24 36 2 -5 8 -7 12 -4z m-68 -93 c14 -24 15 -29 3 -29 -8 0 -17
7 -19 14 -3 8 -10 12 -15 9 -7 -5 -8 11 -2 32 3 10 19 -3 33 -26z m-1072 -53
c0 -5 6 -7 13 -3 8 5 8 2 -2 -9 -11 -14 -11 -17 0 -17 9 0 7 -5 -5 -11 -22
-13 -41 8 -26 27 6 6 7 14 3 17 -3 4 -1 7 5 7 7 0 12 -5 12 -11z m1000 1 c-8
-5 -18 -6 -22 -4 -10 7 -10 -7 1 -24 7 -11 9 -10 15 3 3 9 11 13 17 10 14 -9
-1 -24 -28 -29 -13 -3 -20 1 -20 12 -2 29 4 38 28 39 18 2 20 0 9 -7z m3550
-34 c0 -2 -7 -7 -16 -10 -8 -3 -12 -2 -9 4 6 10 25 14 25 6z m-3710 -120 c0
-6 5 -4 10 4 7 10 10 11 11 3 5 -44 3 -47 -23 -48 -33 -2 -35 2 -10 22 14 12
14 14 1 10 -9 -3 -16 0 -16 7 0 7 6 13 14 13 7 0 13 -5 13 -11z m2870 10 c0
-11 -19 -15 -25 -6 -3 5 1 10 9 10 9 0 16 -2 16 -4z m-2997 -81 c-3 -9 -8 -14
-10 -11 -3 3 -2 9 2 15 9 16 15 13 8 -4z m3120 1 c6 -15 -17 -16 -30 -1 -4 4
-2 5 5 1 6 -4 12 -2 12 3 0 15 7 14 13 -3z m478 5 c-11 -7 -9 -10 8 -16 11 -3
21 -11 21 -16 0 -5 -11 -2 -25 7 -24 16 -25 34 -2 34 8 0 7 -3 -2 -9z m-4109
-36 c3 0 9 -3 13 -7 4 -3 0 -5 -9 -4 -9 1 -22 8 -29 16 -10 10 -9 11 3 4 8 -5
18 -9 22 -9z m244 -34 c-4 -5 -1 -11 5 -13 6 -2 1 -12 -10 -22 -21 -19 -21
-19 -18 0 3 21 15 44 23 44 3 0 3 -4 0 -9z m29 -1 c-9 -14 8 -12 24 3 9 8 12
8 7 0 -3 -6 0 -13 6 -16 10 -3 8 -10 -6 -23 -18 -19 -18 -18 -12 6 3 14 3 19
0 12 -3 -6 -10 -10 -15 -7 -5 4 -6 0 -3 -8 3 -8 -2 -14 -11 -14 -17 0 -20 13
-5 22 5 3 7 12 3 20 -3 8 0 15 7 15 6 0 8 -4 5 -10z m3485 0 c0 -5 -4 -10 -10
-10 -5 0 -10 5 -10 10 0 6 5 10 10 10 6 0 10 -4 10 -10z m120 -11 c0 -4 -8 -9
-18 -11 -10 -3 -19 0 -19 6 0 7 9 12 19 12 10 0 18 -3 18 -7z m14 -29 c-5 -5
-16 -5 -24 1 -13 9 -12 10 3 5 11 -4 17 0 18 12 0 12 2 13 6 4 3 -8 1 -18 -3
-22z m-97 5 c0 -8 -4 -12 -9 -9 -5 3 -6 10 -3 15 9 13 12 11 12 -6z"/>
<path d="M2315 3540 c3 -5 1 -10 -5 -10 -6 0 -8 -5 -4 -11 4 -8 9 -7 15 2 12
19 11 29 -2 29 -5 0 -7 -4 -4 -10z"/>
<path d="M3810 2016 c0 -2 8 -10 18 -17 15 -13 16 -12 3 4 -13 16 -21 21 -21
13z"/>
<path d="M3890 1945 c0 -5 5 -17 10 -25 5 -8 10 -10 10 -5 0 6 -5 17 -10 25
-5 8 -10 11 -10 5z"/>
<path d="M2395 1590 c-4 -6 -10 -8 -14 -6 -4 3 -8 -5 -8 -16 -1 -11 -1 -19 0
-17 1 2 11 14 21 27 11 12 16 22 13 22 -3 0 -9 -5 -12 -10z"/>
<path d="M2306 1508 c3 -5 10 -6 15 -3 13 9 11 12 -6 12 -8 0 -12 -4 -9 -9z"/>
<path d="M1367 557 c-3 -8 1 -14 8 -14 7 0 11 6 8 14 -3 7 -6 13 -8 13 -2 0
-5 -6 -8 -13z"/>
<path d="M1290 496 c0 -2 8 -10 18 -17 15 -13 16 -12 3 4 -13 16 -21 21 -21
13z"/>
<path d="M235 411 c-3 -5 -2 -12 3 -15 5 -3 9 1 9 9 0 17 -3 19 -12 6z"/>
<path d="M1091 257 c-8 -10 -7 -14 2 -14 8 0 14 6 14 14 0 7 -1 13 -2 13 -2 0
-8 -6 -14 -13z"/>
<path d="M943 4920 c0 -19 2 -29 5 -22 2 6 7 10 11 8 4 -3 8 4 8 15 1 11 -2
17 -7 14 -4 -3 -10 1 -12 7 -3 7 -5 -3 -5 -22z"/>
<path d="M390 4915 c-7 -9 -11 -17 -9 -20 3 -2 10 5 17 15 14 24 10 26 -8 5z"/>
<path d="M3955 4870 c-3 -5 -1 -10 4 -10 6 0 11 5 11 10 0 6 -2 10 -4 10 -3 0
-8 -4 -11 -10z"/>
<path d="M3990 4870 c0 -5 5 -10 11 -10 5 0 7 5 4 10 -3 6 -8 10 -11 10 -2 0
-4 -4 -4 -10z"/>
<path d="M4776 4862 c-3 -5 1 -9 9 -9 8 0 12 4 9 9 -3 4 -7 8 -9 8 -2 0 -6 -4
-9 -8z"/>
<path d="M3957 4829 c7 -7 15 -10 18 -7 3 3 -2 9 -12 12 -14 6 -15 5 -6 -5z"/>
<path d="M3900 4798 c0 -4 4 -8 9 -8 6 0 12 4 15 8 3 5 -1 9 -9 9 -8 0 -15 -4
-15 -9z"/>
<path d="M3930 4781 c0 -7 -4 -10 -8 -7 -5 3 -9 -2 -9 -10 0 -13 2 -13 16 0 8
9 12 19 8 22 -4 4 -7 2 -7 -5z"/>
<path d="M140 4710 c-9 -6 -10 -10 -3 -10 6 0 15 5 18 10 8 12 4 12 -15 0z"/>
<path d="M3760 4662 c0 -6 -6 -10 -12 -8 -7 1 -10 1 -5 -1 4 -3 4 -10 1 -16
-4 -7 1 -4 11 5 11 10 16 21 12 24 -4 4 -7 2 -7 -4z"/>
<path d="M3755 4625 c-22 -19 -25 -23 -9 -19 11 3 25 14 32 25 15 24 14 24
-23 -6z"/>
<path d="M4926 4622 c-3 -5 1 -9 9 -9 8 0 12 4 9 9 -3 4 -7 8 -9 8 -2 0 -6 -4
-9 -8z"/>
<path d="M4898 4603 c6 -2 10 -9 7 -14 -4 -5 1 -6 10 -2 13 5 14 7 3 14 -7 5
-17 8 -23 8 -5 0 -4 -3 3 -6z"/>
<path d="M3674 4575 c9 -7 16 -18 16 -25 0 -10 -3 -10 -15 0 -13 11 -14 10 -9
-4 12 -32 40 -11 30 22 -4 10 -14 19 -22 19 -15 0 -15 -1 0 -12z"/>
<path d="M68 4499 c-10 -10 -14 -19 -10 -19 4 0 8 -9 9 -20 1 -13 -2 -18 -10
-13 -8 4 -8 1 1 -9 10 -13 10 -17 0 -21 -10 -4 -10 -6 0 -6 6 -1 12 -6 12 -12
0 -5 -4 -8 -8 -5 -5 3 -9 -1 -9 -9 0 -11 4 -12 13 -4 6 5 18 8 25 7 9 -2 13
11 14 43 1 33 -3 45 -12 42 -8 -3 -11 3 -7 21 5 30 5 30 -18 5z m28 -80 c0
-20 -3 -26 -10 -19 -6 6 -11 24 -11 40 -1 21 2 27 10 19 5 -5 10 -23 11 -40z"/>
<path d="M3635 4481 c-3 -5 0 -13 6 -17 7 -4 9 -3 5 4 -3 5 0 13 6 15 9 4 10
6 1 6 -6 1 -14 -3 -18 -8z"/>
<path d="M3526 4426 c-10 -16 -12 -27 -6 -31 6 -4 9 -3 8 2 -1 4 3 18 10 31
17 30 8 28 -12 -2z"/>
<path d="M3541 4407 c2 -1 13 -9 24 -17 19 -14 19 -14 6 3 -7 9 -18 17 -24 17
-6 0 -8 -1 -6 -3z"/>
<path d="M69 4363 c-1 -5 -1 -12 0 -17 1 -4 -3 -13 -8 -20 -6 -8 -6 -17 1 -26
8 -13 9 -12 5 2 -3 9 1 22 10 30 14 11 15 10 9 -9 -4 -12 -2 -24 3 -28 7 -4 8
1 4 11 -4 10 -2 15 4 11 5 -3 10 0 10 8 0 8 -9 18 -20 21 -16 5 -17 8 -6 15
10 6 11 9 2 9 -7 0 -14 -3 -14 -7z"/>
<path d="M3455 4340 c-3 -5 -2 -10 4 -10 5 0 13 5 16 10 3 6 2 10 -4 10 -5 0
-13 -4 -16 -10z"/>
<path d="M4910 4320 c0 -5 5 -10 10 -10 6 0 10 5 10 10 0 6 -4 10 -10 10 -5 0
-10 -4 -10 -10z"/>
<path d="M3410 4289 c0 -5 5 -7 10 -4 6 3 10 8 10 11 0 2 -4 4 -10 4 -5 0 -10
-5 -10 -11z"/>
<path d="M67 4239 c7 -7 15 -10 18 -7 3 3 -2 9 -12 12 -14 6 -15 5 -6 -5z"/>
<path d="M4900 4206 c0 -2 8 -10 18 -17 15 -13 16 -12 3 4 -13 16 -21 21 -21
13z"/>
<path d="M3325 4180 c3 -5 8 -10 11 -10 2 0 4 5 4 10 0 6 -5 10 -11 10 -5 0
-7 -4 -4 -10z"/>
<path d="M3262 4143 c-17 -7 -36 -43 -22 -43 5 0 10 5 10 11 0 7 8 18 18 25
18 14 16 16 -6 7z"/>
<path d="M4839 4148 c-6 -25 -6 -38 1 -38 12 0 20 29 10 35 -6 4 -10 5 -11 3z"/>
<path d="M3270 4110 c-8 -15 -8 -18 3 -14 8 3 14 11 14 19 0 20 -4 19 -17 -5z"/>
<path d="M140 4102 c0 -4 10 -9 22 -9 18 -2 20 0 8 7 -18 12 -30 13 -30 2z"/>
<path d="M3165 4070 c-16 -7 -17 -9 -3 -9 9 -1 20 4 23 9 7 11 7 11 -20 0z"/>
<path d="M3171 4034 c0 -11 3 -14 6 -6 3 7 2 16 -1 19 -3 4 -6 -2 -5 -13z"/>
<path d="M3202 4034 c-7 -8 -8 -14 -3 -14 10 0 25 19 20 25 -2 1 -10 -3 -17
-11z"/>
<path d="M4759 3953 c-13 -16 -12 -17 4 -4 16 13 21 21 13 21 -2 0 -10 -8 -17
-17z"/>
<path d="M4475 3671 c-3 -5 -2 -12 3 -15 5 -3 9 1 9 9 0 17 -3 19 -12 6z"/>
<path d="M4356 3527 c3 -10 9 -15 12 -12 3 3 0 11 -7 18 -10 9 -11 8 -5 -6z"/>
<path d="M2446 3414 c-4 -10 -1 -14 6 -12 15 5 23 28 10 28 -5 0 -13 -7 -16
-16z"/>
<path d="M2526 3402 c-3 -5 1 -9 9 -9 8 0 15 4 15 9 0 4 -4 8 -9 8 -6 0 -12
-4 -15 -8z"/>
<path d="M2565 3401 c-3 -5 -2 -12 3 -15 5 -3 9 1 9 9 0 17 -3 19 -12 6z"/>
<path d="M3990 3170 c0 -5 5 -10 10 -10 6 0 10 5 10 10 0 6 -4 10 -10 10 -5 0
-10 -4 -10 -10z"/>
<path d="M3970 3152 c0 -15 28 -23 36 -9 4 7 4 9 -1 5 -4 -4 -14 -3 -22 3 -8
7 -13 8 -13 1z"/>
<path d="M3910 3118 c0 -4 4 -8 9 -8 6 0 12 4 15 8 3 5 -1 9 -9 9 -8 0 -15 -4
-15 -9z"/>
<path d="M3925 3089 c-11 -16 -1 -19 13 -3 7 8 8 14 3 14 -5 0 -13 -5 -16 -11z"/>
<path d="M3830 3000 c0 -5 5 -10 11 -10 5 0 7 5 4 10 -3 6 -8 10 -11 10 -2 0
-4 -4 -4 -10z"/>
<path d="M3755 2957 c1 -12 -3 -26 -9 -30 -7 -6 -7 -7 2 -5 8 2 13 7 12 12 -1
5 3 12 10 16 8 5 7 10 -3 18 -11 9 -13 7 -12 -11z"/>
<path d="M3786 2933 c-6 -14 -5 -15 5 -6 7 7 10 15 7 18 -3 3 -9 -2 -12 -12z"/>
<path d="M3700 2890 c-13 -9 -13 -11 0 -20 8 -5 20 -10 25 -10 6 0 3 5 -5 10
-13 9 -13 11 0 20 8 5 11 10 5 10 -5 0 -17 -5 -25 -10z"/>
<path d="M3670 2849 c0 -5 5 -7 10 -4 6 3 10 8 10 11 0 2 -4 4 -10 4 -5 0 -10
-5 -10 -11z"/>
<path d="M3630 2820 c0 -5 5 -10 10 -10 6 0 10 5 10 10 0 6 -4 10 -10 10 -5 0
-10 -4 -10 -10z"/>
<path d="M3570 2740 c0 -5 5 -10 11 -10 5 0 7 5 4 10 -3 6 -8 10 -11 10 -2 0
-4 -4 -4 -10z"/>
<path d="M3560 2710 c-9 -6 -10 -10 -3 -10 6 0 15 5 18 10 8 12 4 12 -15 0z"/>
<path d="M3476 2653 c-4 -9 -3 -20 1 -24 4 -4 9 3 9 17 2 28 -1 31 -10 7z"/>
<path d="M3390 2600 c0 -6 7 -10 15 -10 8 0 15 2 15 4 0 2 -7 6 -15 10 -8 3
-15 1 -15 -4z"/>
<path d="M3405 2560 c3 -5 8 -10 11 -10 2 0 4 5 4 10 0 6 -5 10 -11 10 -5 0
-7 -4 -4 -10z"/>
<path d="M3343 2535 c0 -7 6 -11 14 -8 7 3 13 6 13 8 0 2 -6 5 -13 8 -8 3 -14
-1 -14 -8z"/>
<path d="M3340 2511 c-8 -6 -18 -7 -24 -4 -5 3 -6 1 -3 -5 4 -5 15 -9 25 -7 9
2 20 4 25 4 4 1 7 6 7 11 0 12 -10 13 -30 1z"/>
<path d="M3456 2393 c-6 -14 -5 -15 5 -6 7 7 10 15 7 18 -3 3 -9 -2 -12 -12z"/>
<path d="M3549 2323 c-1 -5 -1 -12 0 -17 1 -5 -5 -6 -13 -3 -13 5 -14 3 -3
-13 10 -17 13 -18 17 -4 3 8 9 15 13 15 24 -3 27 1 13 14 -16 16 -25 19 -27 8z"/>
<path d="M1007 1879 c7 -7 15 -10 18 -7 3 3 -2 9 -12 12 -14 6 -15 5 -6 -5z"/>
<path d="M4030 1796 c0 -2 8 -10 18 -17 15 -13 16 -12 3 4 -13 16 -21 21 -21
13z"/>
<path d="M4073 1785 c0 -8 4 -12 9 -9 5 3 6 10 3 15 -9 13 -12 11 -12 -6z"/>
<path d="M855 1731 c-3 -5 -2 -12 3 -15 5 -3 9 1 9 9 0 17 -3 19 -12 6z"/>
<path d="M4115 1722 c3 -3 0 -10 -5 -17 -7 -8 -5 -12 5 -12 8 0 13 3 10 5 -3
3 0 10 5 17 7 8 5 12 -5 12 -8 0 -13 -3 -10 -5z"/>
<path d="M2455 1662 c-3 -3 0 -11 6 -19 6 -7 7 -13 2 -13 -5 0 -10 -6 -10 -14
0 -11 6 -12 23 -6 12 5 25 6 28 3 3 -4 6 -1 6 5 0 7 -4 12 -10 12 -5 0 -9 3
-9 8 3 19 -2 29 -16 29 -8 0 -17 -3 -20 -5z m30 -20 c-3 -3 -11 0 -18 7 -9 10
-8 11 6 5 10 -3 15 -9 12 -12z"/>
<path d="M795 1640 c-3 -5 -1 -10 4 -10 6 0 11 5 11 10 0 6 -2 10 -4 10 -3 0
-8 -4 -11 -10z"/>
<path d="M2510 1646 c0 -2 7 -7 16 -10 8 -3 12 -2 9 4 -6 10 -25 14 -25 6z"/>
<path d="M720 1580 c-12 -7 -10 -9 7 -7 12 0 19 5 17 9 -6 10 -6 10 -24 -2z"/>
<path d="M4280 1560 c8 -5 20 -10 25 -10 6 0 3 5 -5 10 -8 5 -19 10 -25 10 -5
0 -3 -5 5 -10z"/>
<path d="M654 1502 c4 -3 14 -7 22 -8 9 -1 13 0 10 4 -4 3 -14 7 -22 8 -9 1
-13 0 -10 -4z"/>
<path d="M2690 1500 c0 -5 5 -10 11 -10 5 0 7 5 4 10 -3 6 -8 10 -11 10 -2 0
-4 -4 -4 -10z"/>
<path d="M4340 1480 c-9 -6 -10 -10 -3 -10 6 0 15 5 18 10 8 12 4 12 -15 0z"/>
<path d="M575 1431 c-3 -5 -2 -12 3 -15 5 -3 9 1 9 9 0 17 -3 19 -12 6z"/>
<path d="M2755 1421 c-3 -5 -2 -12 3 -15 5 -3 9 1 9 9 0 17 -3 19 -12 6z"/>
<path d="M4420 1426 c0 -2 8 -10 18 -17 15 -13 16 -12 3 4 -13 16 -21 21 -21
13z"/>
<path d="M2160 1376 c0 -2 8 -10 18 -17 15 -13 16 -12 3 4 -13 16 -21 21 -21
13z"/>
<path d="M2155 1331 c-3 -5 -1 -12 5 -16 5 -3 10 1 10 9 0 18 -6 21 -15 7z"/>
<path d="M4555 1309 c-4 -6 -5 -12 -2 -15 2 -3 7 2 10 11 7 17 1 20 -8 4z"/>
<path d="M2016 1222 c-6 -10 6 -26 20 -29 15 -3 13 25 -2 31 -8 3 -15 2 -18
-2z"/>
<path d="M3050 1140 c0 -5 5 -10 11 -10 5 0 7 5 4 10 -3 6 -8 10 -11 10 -2 0
-4 -4 -4 -10z"/>
<path d="M4714 1131 c20 -22 26 -25 26 -13 0 4 -10 13 -22 21 -23 14 -23 14
-4 -8z"/>
<path d="M1911 1077 c-6 -8 -7 -18 -3 -22 4 -5 -1 -5 -10 -2 -11 4 -21 0 -27
-12 -8 -15 -6 -18 14 -17 30 2 39 11 41 41 1 29 0 30 -15 12z"/>
<path d="M4774 1078 c-4 -7 -4 -10 1 -6 4 4 15 2 24 -5 14 -11 14 -10 2 6 -16
20 -18 21 -27 5z"/>
<path d="M3190 1000 c-9 -6 -10 -10 -3 -10 6 0 15 5 18 10 8 12 4 12 -15 0z"/>
<path d="M3176 961 c-4 -5 3 -7 14 -4 23 6 26 13 6 13 -8 0 -17 -4 -20 -9z"/>
<path d="M4850 939 c0 -5 5 -7 10 -4 6 3 10 8 10 11 0 2 -4 4 -10 4 -5 0 -10
-5 -10 -11z"/>
<path d="M1745 931 c3 -2 -1 -11 -8 -19 -10 -13 -9 -14 1 -8 9 5 12 3 10 -5
-1 -8 0 -15 5 -16 19 -7 25 -1 24 25 -1 19 -7 28 -19 28 -9 0 -15 -2 -13 -5z"/>
<path d="M3237 919 c7 -7 15 -10 18 -7 3 3 -2 9 -12 12 -14 6 -15 5 -6 -5z"/>
<path d="M3270 900 c0 -5 5 -10 11 -10 5 0 7 5 4 10 -3 6 -8 10 -11 10 -2 0
-4 -4 -4 -10z"/>
<path d="M3237 889 c7 -7 15 -10 18 -7 3 3 -2 9 -12 12 -14 6 -15 5 -6 -5z"/>
<path d="M4847 858 c-4 -15 -3 -18 5 -10 6 6 17 8 24 5 21 -8 17 5 -5 16 -15
9 -20 7 -24 -11z"/>
<path d="M3325 840 c-4 -12 -11 -17 -18 -14 -7 4 -8 3 -4 -1 14 -16 36 -14 30
3 -4 10 -2 13 5 8 8 -5 10 -2 6 8 -8 21 -11 20 -19 -4z"/>
<path d="M3374 769 c0 -10 4 -19 8 -19 4 0 8 6 8 14 0 8 -4 17 -8 20 -4 2 -8
-4 -8 -15z"/>
<path d="M3410 765 c0 -8 4 -15 10 -15 5 0 7 7 4 15 -4 8 -8 15 -10 15 -2 0
-4 -7 -4 -15z"/>
<path d="M3470 700 c-13 -8 -12 -10 3 -10 9 0 17 5 17 10 0 12 -1 12 -20 0z"/>
<path d="M1443 638 c-12 -21 -12 -39 0 -31 18 11 38 12 31 2 -3 -5 -10 -7 -15
-4 -5 4 -9 1 -9 -4 0 -16 30 -13 36 3 3 8 1 23 -5 33 -6 10 -11 12 -11 6 0 -7
-5 -13 -11 -13 -5 0 -7 5 -4 10 3 6 4 10 1 10 -3 0 -8 -6 -13 -12z"/>
<path d="M3550 620 c0 -5 5 -10 10 -10 6 0 10 5 10 10 0 6 -4 10 -10 10 -5 0
-10 -4 -10 -10z"/>
<path d="M125 595 c0 -13 2 -21 4 -19 6 6 41 -27 41 -39 0 -6 -8 -3 -18 6 -18
16 -19 16 -17 -3 1 -11 5 -23 10 -27 4 -5 5 -2 1 5 -9 16 6 16 23 0 10 -9 12
-9 7 -1 -3 6 -2 14 4 18 5 3 -2 17 -18 30 -20 19 -23 24 -10 25 9 0 19 -6 21
-12 4 -8 6 -9 6 -2 1 6 -6 17 -14 24 -8 7 -15 9 -15 5 0 -4 -6 -3 -12 3 -10 8
-13 5 -13 -13z"/>
<path d="M3615 570 c-3 -5 -4 -14 0 -19 3 -5 -2 -12 -10 -14 -12 -4 -12 -5 1
-3 10 0 18 10 19 24 2 24 -1 27 -10 12z"/>
<path d="M4909 523 c-13 -16 -12 -17 4 -4 16 13 21 21 13 21 -2 0 -10 -8 -17
-17z"/>
<path d="M3676 475 c-3 -8 -1 -15 4 -15 6 0 10 7 10 15 0 8 -2 15 -4 15 -2 0
-6 -7 -10 -15z"/>
<path d="M4860 466 c0 -2 7 -7 16 -10 8 -3 12 -2 9 4 -6 10 -25 14 -25 6z"/>
<path d="M3756 413 c-6 -14 -5 -15 5 -6 7 7 10 15 7 18 -3 3 -9 -2 -12 -12z"/>
<path d="M3747 383 c-3 -5 6 -9 20 -10 19 -1 22 1 12 8 -17 11 -26 11 -32 2z"/>
<path d="M1176 336 c2 -14 0 -27 -6 -31 -6 -3 -7 1 -4 9 3 9 1 16 -5 16 -6 0
-11 -9 -11 -20 0 -23 4 -24 29 -10 28 14 33 38 11 50 -16 9 -18 7 -14 -14z"/>
<path d="M3830 351 c0 -5 5 -13 10 -16 6 -3 10 -2 10 4 0 5 -4 13 -10 16 -5 3
-10 2 -10 -4z"/>
<path d="M3810 326 c0 -2 7 -7 16 -10 8 -3 12 -2 9 4 -6 10 -25 14 -25 6z"/>
<path d="M3910 261 c0 -6 4 -13 10 -16 6 -3 7 1 4 9 -7 18 -14 21 -14 7z"/>
<path d="M4693 254 c-3 -8 -1 -20 5 -26 8 -8 9 -4 5 12 -5 17 -3 21 7 15 9 -5
11 -4 6 3 -10 16 -15 15 -23 -4z"/>
<path d="M1010 159 c0 -5 5 -7 10 -4 6 3 10 8 10 11 0 2 -4 4 -10 4 -5 0 -10
-5 -10 -11z"/>
<path d="M820 126 c0 -2 7 -7 16 -10 8 -3 12 -2 9 4 -6 10 -25 14 -25 6z"/>
<path d="M896 122 c-3 -5 1 -9 9 -9 8 0 12 4 9 9 -3 4 -7 8 -9 8 -2 0 -6 -4
-9 -8z"/>
<path d="M4169 119 c5 -6 7 -19 4 -28 -5 -13 -3 -14 8 -3 11 10 10 15 -4 27
-9 8 -13 10 -8 4z"/>
<path d="M800 116 c0 -2 7 -9 15 -16 9 -7 15 -8 15 -2 0 5 -7 12 -15 16 -8 3
-15 4 -15 2z"/>
<path d="M4427 97 c-3 -8 1 -14 8 -14 7 0 11 6 8 14 -3 7 -6 13 -8 13 -2 0 -5
-6 -8 -13z"/>
</g>
</svg>
